#N canvas 1012 341 1309 555 12;
#X obj 10 34 inlet;
#X obj 10 58 sel 0;
#X msg 10 82 stop;
#X obj 153 17 moses;
#X obj 127 55 t b b;
#X obj 183 86 t b;
#X msg 55 184 0;
#X obj 121 180 f \$1;
#X obj 121 204 pack 0 \$2;
#X obj 270 319 line~;
#X obj 270 343 outlet~;
#X obj 267 124 inlet;
#X obj 321 126 inlet;
#X obj 377 126 inlet;
#X obj 439 128 inlet;
#X text 315 97 attack;
#X text 378 101 decay;
#X text 440 102 sustain;
#X obj 218 208 del \$2;
#X obj 218 232 f \$4;
#X obj 218 256 * 0.01;
#X obj 309 232 * \$1;
#X obj 309 256 pack 0 \$3;
#X obj 436 261 pack 0 \$5;
#X obj 497 222 inlet;
#X text 496 191 release;
#X text 413 9 based on http://msp.ucsd.edu/techniques/latest/book-html/node69.html
;
#X text 239 97 peak level;
#X text 588 174 have attack deley go up to peak level \, then deley
for dacy and ramp down to sustain \, then on 0 \, ramp down to 0 at
release time. attack \, decay \, release are deley times in ms peak
level and sustain are percentages;
#X connect 0 0 1 0;
#X connect 1 0 2 0;
#X connect 1 0 23 0;
#X connect 1 1 3 0;
#X connect 2 0 18 0;
#X connect 3 0 4 0;
#X connect 3 1 5 0;
#X connect 4 0 5 0;
#X connect 4 1 6 0;
#X connect 5 0 7 0;
#X connect 5 0 18 0;
#X connect 6 0 9 0;
#X connect 7 0 8 0;
#X connect 8 0 9 0;
#X connect 9 0 10 0;
#X connect 11 0 7 1;
#X connect 11 0 21 1;
#X connect 12 0 8 1;
#X connect 12 0 18 1;
#X connect 13 0 22 1;
#X connect 14 0 19 1;
#X connect 18 0 19 0;
#X connect 19 0 20 0;
#X connect 20 0 21 0;
#X connect 21 0 22 0;
#X connect 22 0 9 0;
#X connect 23 0 9 0;
#X connect 24 0 23 1;
