#N canvas -8 -8 1920 1037 12;
#X obj 125 163 pack f f f;
#X obj 90 256 unpack f f;
#X floatatom 88 292 5 0 0 0 - - -;
#X obj 146 297 tgl 15 0 empty empty empty 17 7 0 10 -262144 -1 -1 0
1;
#X obj 195 257 unpack f f;
#X floatatom 193 293 5 0 0 0 - - -;
#X obj 260 302 tgl 15 0 empty empty empty 17 7 0 10 -262144 -1 -1 0
1;
#X obj 289 263 unpack f f;
#X floatatom 287 299 5 0 0 0 - - -;
#X obj 354 308 tgl 15 0 empty empty empty 17 7 0 10 -262144 -1 -1 0
1;
#X obj 383 266 unpack f f;
#X floatatom 387 301 5 0 0 0 - - -;
#X obj 448 309 tgl 15 0 empty empty empty 17 7 0 10 -262144 -1 -1 0
1;
#X obj 778 757 vsl 15 128 0 1 0 0 empty empty empty 0 -9 0 10 -262144
-1 -1 500 1;
#X obj 588 905 dac~;
#X obj 487 266 unpack f f;
#X floatatom 485 302 5 0 0 0 - - -;
#X obj 543 307 tgl 15 0 empty empty empty 17 7 0 10 -262144 -1 -1 0
1;
#X obj 592 267 unpack f f;
#X floatatom 590 303 5 0 0 0 - - -;
#X obj 657 312 tgl 15 0 empty empty empty 17 7 0 10 -262144 -1 -1 0
1;
#X obj 686 273 unpack f f;
#X floatatom 684 309 5 0 0 0 - - -;
#X obj 751 318 tgl 15 0 empty empty empty 17 7 0 10 -262144 -1 -1 0
1;
#X obj 780 276 unpack f f;
#X floatatom 784 311 5 0 0 0 - - -;
#X obj 843 313 tgl 15 0 empty empty empty 17 7 0 10 -262144 -1 -1 0
1;
#X obj 881 278 unpack f f;
#X floatatom 879 314 5 0 0 0 - - -;
#X obj 946 323 tgl 15 0 empty empty empty 17 7 0 10 -262144 -1 -1 0
1;
#X obj 981 281 unpack f f;
#X floatatom 985 316 5 0 0 0 - - -;
#X obj 1044 318 tgl 15 0 empty empty empty 17 7 0 10 -262144 -1 -1
0 1;
#X obj 144 200 route 1 2 3 4 5 6 7 8 9 10;
#X obj 72 324 KeyToNote;
#X obj 180 327 KeyToNote;
#X obj 290 330 KeyToNote;
#X obj 382 332 KeyToNote;
#X obj 490 332 KeyToNote;
#X obj 594 336 KeyToNote;
#X obj 687 338 KeyToNote;
#X obj 784 341 KeyToNote;
#X obj 867 346 KeyToNote;
#X obj 979 348 KeyToNote;
#X obj 126 130 poly 10 1;
#N canvas -1623 108 958 1028 getKey 0;
#X obj 114 20 key;
#X obj 1324 -44 keyup;
#X msg 1550 372 \$1 127;
#X msg 1733 379 \$1 0;
#X obj 39 188 spigot;
#X obj 70 154 tgl 15 0 empty empty empty 17 7 0 10 -262144 -1 -1 1
1;
#X msg 68 214 0;
#X msg 1317 88 1;
#X msg 114 46 \$1 \$1;
#X msg 1324 -21 \$1 \$1;
#X msg 1354 88 1;
#X msg 1394 88 1;
#X msg 1431 87 1;
#X obj 94 186 spigot;
#X obj 125 152 tgl 15 0 empty empty empty 17 7 0 10 -262144 -1 -1 1
1;
#X msg 114 214 0;
#X obj 152 188 spigot;
#X obj 183 154 tgl 15 0 empty empty empty 17 7 0 10 -262144 -1 -1 1
1;
#X msg 172 216 0;
#X obj 207 188 spigot;
#X obj 238 154 tgl 15 0 empty empty empty 17 7 0 10 -262144 -1 -1 1
1;
#X msg 227 216 0;
#X obj 112 71 route 113 119 101 114 116 121 117 105 111 112;
#X obj 264 190 spigot;
#X obj 295 156 tgl 15 0 empty empty empty 17 7 0 10 -262144 -1 -1 1
1;
#X msg 293 216 0;
#X obj 319 188 spigot;
#X obj 350 154 tgl 15 0 empty empty empty 17 7 0 10 -262144 -1 -1 1
1;
#X msg 339 216 0;
#X obj 377 190 spigot;
#X obj 408 156 tgl 15 0 empty empty empty 17 7 0 10 -262144 -1 -1 1
1;
#X msg 397 218 0;
#X obj 432 190 spigot;
#X obj 463 156 tgl 15 0 empty empty empty 17 7 0 10 -262144 -1 -1 1
1;
#X msg 452 218 0;
#X obj 487 188 spigot;
#X obj 518 154 tgl 15 0 empty empty empty 17 7 0 10 -262144 -1 -1 1
1;
#X msg 507 216 0;
#X obj 542 188 spigot;
#X obj 573 154 tgl 15 0 empty empty empty 17 7 0 10 -262144 -1 -1 1
1;
#X msg 562 216 0;
#X obj 1327 8 route 113 119 101 114 116 121 117 105 111 112;
#X msg 1474 85 1;
#X msg 1511 85 1;
#X msg 1551 85 1;
#X msg 1588 84 1;
#X msg 1624 87 1;
#X msg 1661 86 1;
#X obj 600 187 spigot;
#X obj 631 153 tgl 15 0 empty empty empty 17 7 0 10 -262144 -1 -1 1
1;
#X msg 629 213 0;
#X obj 655 185 spigot;
#X obj 686 151 tgl 15 0 empty empty empty 17 7 0 10 -262144 -1 -1 1
1;
#X msg 675 213 0;
#X obj 713 187 spigot;
#X obj 744 153 tgl 15 0 empty empty empty 17 7 0 10 -262144 -1 -1 1
1;
#X msg 733 215 0;
#X obj 768 187 spigot;
#X obj 799 153 tgl 15 0 empty empty empty 17 7 0 10 -262144 -1 -1 1
1;
#X msg 788 215 0;
#X obj 825 189 spigot;
#X obj 856 155 tgl 15 0 empty empty empty 17 7 0 10 -262144 -1 -1 1
1;
#X msg 854 215 0;
#X obj 880 187 spigot;
#X obj 911 153 tgl 15 0 empty empty empty 17 7 0 10 -262144 -1 -1 1
1;
#X msg 900 215 0;
#X obj 938 189 spigot;
#X obj 969 155 tgl 15 0 empty empty empty 17 7 0 10 -262144 -1 -1 1
1;
#X msg 958 217 0;
#X msg 1699 83 1;
#X msg 1736 83 1;
#X msg 1776 83 1;
#X msg 1813 82 1;
#X msg 1856 80 1;
#X msg 1893 80 1;
#X msg 1933 80 1;
#X obj 1594 419 outlet;
#X obj 472 100 route 50 51 53 54 55 57 48;
#X obj 1707 36 route 50 51 53 54 55 57 48;
#X obj 927 94 loadbang;
#X obj 699 58 route 122 120 99 118 98 110 109 44 46 47;
#X obj 997 189 spigot;
#X obj 1028 155 tgl 15 0 empty empty empty 17 7 0 10 -262144 -1 -1
0 1;
#X msg 1026 215 0;
#X obj 1052 187 spigot;
#X obj 1083 153 tgl 15 0 empty empty empty 17 7 0 10 -262144 -1 -1
1 1;
#X msg 1072 215 0;
#X obj 1110 189 spigot;
#X obj 1141 155 tgl 15 0 empty empty empty 17 7 0 10 -262144 -1 -1
1 1;
#X msg 1130 217 0;
#X obj 1165 189 spigot;
#X obj 1196 155 tgl 15 0 empty empty empty 17 7 0 10 -262144 -1 -1
1 1;
#X msg 1185 217 0;
#X obj 1222 191 spigot;
#X obj 1253 157 tgl 15 0 empty empty empty 17 7 0 10 -262144 -1 -1
1 1;
#X msg 1251 217 0;
#X obj 1277 189 spigot;
#X obj 1308 155 tgl 15 0 empty empty empty 17 7 0 10 -262144 -1 -1
1 1;
#X msg 1297 217 0;
#X obj 1335 191 spigot;
#X obj 1366 157 tgl 15 0 empty empty empty 17 7 0 10 -262144 -1 -1
1 1;
#X msg 1355 219 0;
#X obj 1390 191 spigot;
#X obj 1421 157 tgl 15 0 empty empty empty 17 7 0 10 -262144 -1 -1
1 1;
#X msg 1410 219 0;
#X obj 1445 189 spigot;
#X obj 1476 155 tgl 15 0 empty empty empty 17 7 0 10 -262144 -1 -1
1 1;
#X msg 1465 217 0;
#X obj 1500 189 spigot;
#X obj 1531 155 tgl 15 0 empty empty empty 17 7 0 10 -262144 -1 -1
1 1;
#X msg 1520 217 0;
#X obj 1558 189 spigot;
#X obj 1589 154 tgl 15 0 empty empty empty 17 7 0 10 -262144 -1 -1
1 1;
#X msg 1587 214 0;
#X obj 1613 186 spigot;
#X obj 1644 152 tgl 15 0 empty empty empty 17 7 0 10 -262144 -1 -1
1 1;
#X msg 1633 214 0;
#X obj 1671 188 spigot;
#X obj 1702 154 tgl 15 0 empty empty empty 17 7 0 10 -262144 -1 -1
1 1;
#X msg 1691 216 0;
#X obj 1726 188 spigot;
#X obj 1757 154 tgl 15 0 empty empty empty 17 7 0 10 -262144 -1 -1
1 1;
#X msg 1746 216 0;
#X obj 1783 190 spigot;
#X obj 1814 156 tgl 15 0 empty empty empty 17 7 0 10 -262144 -1 -1
1 1;
#X msg 1812 216 0;
#X obj 1838 188 spigot;
#X obj 1869 154 tgl 15 0 empty empty empty 17 7 0 10 -262144 -1 -1
1 1;
#X msg 1858 216 0;
#X obj 1896 190 spigot;
#X obj 1927 156 tgl 15 0 empty empty empty 17 7 0 10 -262144 -1 -1
1 1;
#X msg 1916 218 0;
#X obj 1951 190 spigot;
#X obj 1982 156 tgl 15 0 empty empty empty 17 7 0 10 -262144 -1 -1
1 1;
#X msg 1971 218 0;
#X obj 1973 11 route 122 120 99 118 98 110 109 44 46 47;
#X msg 1969 79 1;
#X msg 2007 81 1;
#X msg 2046 79 1;
#X msg 2126 77 1;
#X msg 2169 75 1;
#X msg 2206 75 1;
#X msg 2246 75 1;
#X msg 2283 74 1;
#X msg 2319 77 1;
#X msg 2360 74 1;
#X msg 2394 73 1;
#X msg 2431 73 1;
#X msg 2471 73 1;
#X msg 2508 72 1;
#X msg 2551 70 1;
#X msg 2586 72 1;
#X msg 2626 72 1;
#X msg 2088 78 1;
#X obj 1032 67 route 115 100 102 104 106 108 59 39;
#X obj 2285 34 route 115 100 102 104 106 108 59 39;
#X connect 0 0 8 0;
#X connect 1 0 9 0;
#X connect 2 0 76 0;
#X connect 3 0 76 0;
#X connect 4 0 6 0;
#X connect 4 0 2 0;
#X connect 5 0 4 1;
#X connect 6 0 5 0;
#X connect 7 0 5 0;
#X connect 8 0 22 0;
#X connect 9 0 41 0;
#X connect 10 0 14 0;
#X connect 11 0 17 0;
#X connect 12 0 20 0;
#X connect 13 0 15 0;
#X connect 13 0 2 0;
#X connect 14 0 13 1;
#X connect 15 0 14 0;
#X connect 16 0 18 0;
#X connect 16 0 2 0;
#X connect 17 0 16 1;
#X connect 18 0 17 0;
#X connect 19 0 21 0;
#X connect 19 0 2 0;
#X connect 20 0 19 1;
#X connect 21 0 20 0;
#X connect 22 0 4 0;
#X connect 22 1 13 0;
#X connect 22 2 16 0;
#X connect 22 3 19 0;
#X connect 22 4 23 0;
#X connect 22 5 26 0;
#X connect 22 6 29 0;
#X connect 22 7 32 0;
#X connect 22 8 35 0;
#X connect 22 9 38 0;
#X connect 22 10 77 0;
#X connect 23 0 25 0;
#X connect 23 0 2 0;
#X connect 24 0 23 1;
#X connect 25 0 24 0;
#X connect 26 0 28 0;
#X connect 26 0 2 0;
#X connect 27 0 26 1;
#X connect 28 0 27 0;
#X connect 29 0 31 0;
#X connect 29 0 2 0;
#X connect 30 0 29 1;
#X connect 31 0 30 0;
#X connect 32 0 34 0;
#X connect 32 0 2 0;
#X connect 33 0 32 1;
#X connect 34 0 33 0;
#X connect 35 0 37 0;
#X connect 35 0 2 0;
#X connect 36 0 35 1;
#X connect 37 0 36 0;
#X connect 38 0 40 0;
#X connect 38 0 2 0;
#X connect 39 0 38 1;
#X connect 40 0 39 0;
#X connect 41 0 7 0;
#X connect 41 0 3 0;
#X connect 41 1 10 0;
#X connect 41 1 3 0;
#X connect 41 2 11 0;
#X connect 41 2 3 0;
#X connect 41 3 12 0;
#X connect 41 3 3 0;
#X connect 41 4 42 0;
#X connect 41 4 3 0;
#X connect 41 5 43 0;
#X connect 41 5 3 0;
#X connect 41 6 44 0;
#X connect 41 6 3 0;
#X connect 41 7 45 0;
#X connect 41 7 3 0;
#X connect 41 8 46 0;
#X connect 41 8 3 0;
#X connect 41 9 47 0;
#X connect 41 9 3 0;
#X connect 41 10 78 0;
#X connect 42 0 24 0;
#X connect 43 0 27 0;
#X connect 44 0 30 0;
#X connect 45 0 33 0;
#X connect 46 0 36 0;
#X connect 47 0 39 0;
#X connect 48 0 50 0;
#X connect 48 0 2 0;
#X connect 49 0 48 1;
#X connect 50 0 49 0;
#X connect 51 0 53 0;
#X connect 51 0 2 0;
#X connect 52 0 51 1;
#X connect 53 0 52 0;
#X connect 54 0 56 0;
#X connect 54 0 2 0;
#X connect 55 0 54 1;
#X connect 56 0 55 0;
#X connect 57 0 59 0;
#X connect 57 0 2 0;
#X connect 58 0 57 1;
#X connect 59 0 58 0;
#X connect 60 0 62 0;
#X connect 60 0 2 0;
#X connect 61 0 60 1;
#X connect 62 0 61 0;
#X connect 63 0 65 0;
#X connect 63 0 2 0;
#X connect 64 0 63 1;
#X connect 65 0 64 0;
#X connect 66 0 68 0;
#X connect 66 0 2 0;
#X connect 67 0 66 1;
#X connect 68 0 67 0;
#X connect 69 0 49 0;
#X connect 70 0 52 0;
#X connect 71 0 55 0;
#X connect 72 0 58 0;
#X connect 73 0 61 0;
#X connect 74 0 64 0;
#X connect 75 0 67 0;
#X connect 77 0 48 0;
#X connect 77 1 51 0;
#X connect 77 2 54 0;
#X connect 77 3 57 0;
#X connect 77 4 60 0;
#X connect 77 5 63 0;
#X connect 77 6 66 0;
#X connect 77 7 80 0;
#X connect 78 0 69 0;
#X connect 78 0 3 0;
#X connect 78 1 70 0;
#X connect 78 1 3 0;
#X connect 78 2 71 0;
#X connect 78 2 3 0;
#X connect 78 3 72 0;
#X connect 78 3 3 0;
#X connect 78 4 73 0;
#X connect 78 4 3 0;
#X connect 78 5 74 0;
#X connect 78 5 3 0;
#X connect 78 6 75 0;
#X connect 78 6 3 0;
#X connect 78 7 135 0;
#X connect 79 0 5 0;
#X connect 79 0 14 0;
#X connect 79 0 17 0;
#X connect 79 0 20 0;
#X connect 79 0 24 0;
#X connect 79 0 27 0;
#X connect 79 0 30 0;
#X connect 79 0 33 0;
#X connect 79 0 36 0;
#X connect 79 0 39 0;
#X connect 79 0 49 0;
#X connect 79 0 52 0;
#X connect 79 0 55 0;
#X connect 79 0 58 0;
#X connect 79 0 61 0;
#X connect 79 0 64 0;
#X connect 79 0 67 0;
#X connect 79 0 85 0;
#X connect 79 0 88 0;
#X connect 79 0 91 0;
#X connect 79 0 97 0;
#X connect 79 0 94 0;
#X connect 79 0 100 0;
#X connect 79 0 103 0;
#X connect 79 0 106 0;
#X connect 79 0 109 0;
#X connect 79 0 112 0;
#X connect 79 0 115 0;
#X connect 79 0 118 0;
#X connect 79 0 121 0;
#X connect 79 0 124 0;
#X connect 79 0 127 0;
#X connect 79 0 130 0;
#X connect 79 0 133 0;
#X connect 80 0 81 0;
#X connect 80 1 84 0;
#X connect 80 2 87 0;
#X connect 80 3 90 0;
#X connect 80 4 93 0;
#X connect 80 5 96 0;
#X connect 80 6 99 0;
#X connect 80 7 102 0;
#X connect 80 8 105 0;
#X connect 80 9 108 0;
#X connect 80 10 154 0;
#X connect 81 0 83 0;
#X connect 81 0 2 0;
#X connect 82 0 81 1;
#X connect 83 0 82 0;
#X connect 84 0 86 0;
#X connect 84 0 2 0;
#X connect 85 0 84 1;
#X connect 86 0 85 0;
#X connect 87 0 89 0;
#X connect 87 0 2 0;
#X connect 88 0 87 1;
#X connect 89 0 88 0;
#X connect 90 0 92 0;
#X connect 90 0 2 0;
#X connect 91 0 90 1;
#X connect 92 0 91 0;
#X connect 93 0 95 0;
#X connect 93 0 2 0;
#X connect 94 0 93 1;
#X connect 95 0 94 0;
#X connect 96 0 98 0;
#X connect 96 0 2 0;
#X connect 97 0 96 1;
#X connect 98 0 97 0;
#X connect 99 0 101 0;
#X connect 99 0 2 0;
#X connect 100 0 99 1;
#X connect 101 0 100 0;
#X connect 102 0 104 0;
#X connect 102 0 2 0;
#X connect 103 0 102 1;
#X connect 104 0 103 0;
#X connect 105 0 107 0;
#X connect 105 0 2 0;
#X connect 106 0 105 1;
#X connect 107 0 106 0;
#X connect 108 0 110 0;
#X connect 108 0 2 0;
#X connect 109 0 108 1;
#X connect 110 0 109 0;
#X connect 111 0 113 0;
#X connect 111 0 2 0;
#X connect 112 0 111 1;
#X connect 113 0 112 0;
#X connect 114 0 116 0;
#X connect 114 0 2 0;
#X connect 115 0 114 1;
#X connect 116 0 115 0;
#X connect 117 0 119 0;
#X connect 117 0 2 0;
#X connect 118 0 117 1;
#X connect 119 0 118 0;
#X connect 120 0 122 0;
#X connect 120 0 2 0;
#X connect 121 0 120 1;
#X connect 122 0 121 0;
#X connect 123 0 125 0;
#X connect 123 0 2 0;
#X connect 124 0 123 1;
#X connect 125 0 124 0;
#X connect 126 0 128 0;
#X connect 126 0 2 0;
#X connect 127 0 126 1;
#X connect 128 0 127 0;
#X connect 129 0 131 0;
#X connect 129 0 2 0;
#X connect 130 0 129 1;
#X connect 131 0 130 0;
#X connect 132 0 134 0;
#X connect 132 0 2 0;
#X connect 133 0 132 1;
#X connect 134 0 133 0;
#X connect 135 0 136 0;
#X connect 135 0 3 0;
#X connect 135 1 137 0;
#X connect 135 1 3 0;
#X connect 135 2 138 0;
#X connect 135 2 3 0;
#X connect 135 3 153 0;
#X connect 135 3 3 0;
#X connect 135 4 139 0;
#X connect 135 4 3 0;
#X connect 135 5 140 0;
#X connect 135 5 3 0;
#X connect 135 6 141 0;
#X connect 135 6 3 0;
#X connect 135 7 142 0;
#X connect 135 7 3 0;
#X connect 135 8 143 0;
#X connect 135 8 3 0;
#X connect 135 9 144 0;
#X connect 135 9 3 0;
#X connect 135 10 155 0;
#X connect 136 0 82 0;
#X connect 137 0 85 0;
#X connect 138 0 88 0;
#X connect 139 0 94 0;
#X connect 140 0 97 0;
#X connect 141 0 100 0;
#X connect 142 0 103 0;
#X connect 143 0 106 0;
#X connect 144 0 109 0;
#X connect 145 0 112 0;
#X connect 146 0 115 0;
#X connect 147 0 118 0;
#X connect 148 0 121 0;
#X connect 149 0 124 0;
#X connect 150 0 127 0;
#X connect 151 0 130 0;
#X connect 152 0 133 0;
#X connect 153 0 91 0;
#X connect 154 0 111 0;
#X connect 154 1 114 0;
#X connect 154 2 117 0;
#X connect 154 3 120 0;
#X connect 154 4 123 0;
#X connect 154 5 126 0;
#X connect 154 6 129 0;
#X connect 154 7 132 0;
#X connect 155 0 145 0;
#X connect 155 0 3 0;
#X connect 155 1 146 0;
#X connect 155 1 3 0;
#X connect 155 2 147 0;
#X connect 155 2 3 0;
#X connect 155 3 148 0;
#X connect 155 3 3 0;
#X connect 155 4 149 0;
#X connect 155 4 3 0;
#X connect 155 5 150 0;
#X connect 155 5 3 0;
#X connect 155 6 151 0;
#X connect 155 6 3 0;
#X connect 155 7 152 0;
#X connect 155 7 3 0;
#X connect 155 8 3 0;
#X restore 127 56 pd getKey;
#X obj 354 736 tgl 15 0 empty empty empty 17 7 0 10 -262144 -1 -1 1
1;
#X obj 341 867 tabwrite~ oscil;
#N canvas 0 50 450 250 (subpatch) 0;
#X array oscil 100 float 1;
#A 0 0 0 0 0 0 0 0 0 0 0 0 0 0 0 0 0 0 0 0 0 0 0 0 0 0 0 0 0 0 0 0
0 0 0 0 0 0 0 0 0 0 0 0 0 0 0 0 0 0 0 0 0 0 0 0 0 0 0 0 0 0 0 0 0 0
0 0 0 0 0 0 0 0 0 0 0 0 0 0 0 0 0 0 0 0 0 0 0 0 0 0 0 0 0 0 0 0 0 0
0;
#X coords 0 1 99 -1 200 140 1 0 0;
#X restore 64 548 graph;
#X obj 364 809 metro 50;
#X obj 597 675 hsl 128 15 0 127 0 0 empty empty empty -2 -8 0 10 -262144
-1 -1 0 1;
#X obj 594 695 mtof;
#X obj 535 736 svf~, f 8;
#X obj 503 775 selector~ 4 1;
#X obj 692 718 hsl 128 15 0 1 0 0 empty empty empty -2 -8 0 10 -262144
-1 -1 0 1;
#X obj 484 654 vradio 15 1 1 4 empty empty empty 0 -8 0 10 -228856
-1 -1 3;
#X text 434 653 lowpass;
#X text 428 669 highpass;
#X text 428 684 bandpass;
#X text 446 699 notch;
#X obj 484 720 + 1;
#X obj 504 826 *~;
#N canvas -1928 -8 1920 1037 OSC 0;
#X obj 88 23 inlet;
#X obj 77 320 osc~;
#X obj 117 317 phasor~;
#X obj 181 348 triangle~;
#X obj 79 204 route 0 1 2 3;
#X obj 64 139 pack f f;
#X obj 182 317 phasor~;
#X obj 266 316 phasor~;
#X obj 265 351 expr~ $v1 > 0.5;
#X obj 3562 787 *~ 1;
#X obj 112 81 unpack f f;
#X obj 50 438 *~;
#X obj 112 437 *~;
#X obj 186 439 *~;
#X obj 270 444 *~;
#X obj 75 368 r x;
#X obj 64 401 == 0;
#X obj 139 365 r x;
#X obj 128 398 == 1;
#X obj 214 373 r x;
#X obj 205 401 == 2;
#X obj 307 378 r x;
#X obj 296 411 == 3;
#X obj 172 489 *~;
#X obj 303 182 / 127;
#X obj 40 72 expr x;
#X floatatom 42 102 5 0 0 0 - - -;
#X msg 34 42 bang;
#X obj 27 137 s x;
#X obj 3543 833 outlet~;
#X obj 4573 253 inlet;
#X obj 284 488 vline~;
#X obj 303 211 select 0;
#X obj 434 420 pack;
#X obj 434 389 r attack;
#X obj 375 418 pack;
#X obj 375 387 r decay;
#X obj 455 352 bng 15 250 50 0 empty empty empty 17 7 0 10 -262144
-1 -1;
#X obj 380 351 bng 15 250 50 0 empty empty empty 17 7 0 10 -262144
-1 -1;
#X obj 4438 258 inlet;
#X obj 4508 256 inlet;
#X obj 438 464 print;
#X obj 4438 282 s attack;
#X obj 4508 280 s decay;
#X obj 4573 277 v x;
#X obj 561 48 inlet;
#X obj 550 345 osc~;
#X obj 590 342 phasor~;
#X obj 654 373 triangle~;
#X obj 552 229 route 0 1 2 3;
#X obj 537 164 pack f f;
#X obj 655 342 phasor~;
#X obj 739 341 phasor~;
#X obj 738 376 expr~ $v1 > 0.5;
#X obj 585 106 unpack f f;
#X obj 523 463 *~;
#X obj 585 462 *~;
#X obj 659 464 *~;
#X obj 743 469 *~;
#X obj 548 393 r x;
#X obj 537 426 == 0;
#X obj 612 390 r x;
#X obj 601 423 == 1;
#X obj 687 398 r x;
#X obj 678 426 == 2;
#X obj 780 403 r x;
#X obj 769 436 == 3;
#X obj 645 514 *~;
#X obj 776 207 / 127;
#X obj 513 97 expr x;
#X floatatom 515 127 5 0 0 0 - - -;
#X msg 507 67 bang;
#X obj 500 162 s x;
#X obj 757 513 vline~;
#X obj 776 236 select 0;
#X obj 907 445 pack;
#X obj 907 414 r attack;
#X obj 848 443 pack;
#X obj 848 412 r decay;
#X obj 928 377 bng 15 250 50 0 empty empty empty 17 7 0 10 -262144
-1 -1;
#X obj 853 376 bng 15 250 50 0 empty empty empty 17 7 0 10 -262144
-1 -1;
#X obj 911 489 print;
#X obj 1011 74 inlet;
#X obj 1000 371 osc~;
#X obj 1040 368 phasor~;
#X obj 1104 399 triangle~;
#X obj 1002 255 route 0 1 2 3;
#X obj 987 190 pack f f;
#X obj 1105 368 phasor~;
#X obj 1189 367 phasor~;
#X obj 1188 402 expr~ $v1 > 0.5;
#X obj 1035 132 unpack f f;
#X obj 973 489 *~;
#X obj 1035 488 *~;
#X obj 1109 490 *~;
#X obj 1193 495 *~;
#X obj 998 419 r x;
#X obj 987 452 == 0;
#X obj 1062 416 r x;
#X obj 1051 449 == 1;
#X obj 1137 424 r x;
#X obj 1128 452 == 2;
#X obj 1230 429 r x;
#X obj 1219 462 == 3;
#X obj 1095 540 *~;
#X obj 1226 233 / 127;
#X obj 963 123 expr x;
#X floatatom 965 153 5 0 0 0 - - -;
#X msg 957 93 bang;
#X obj 950 188 s x;
#X obj 1207 539 vline~;
#X obj 1226 262 select 0;
#X obj 1357 471 pack;
#X obj 1357 440 r attack;
#X obj 1298 469 pack;
#X obj 1298 438 r decay;
#X obj 1378 403 bng 15 250 50 0 empty empty empty 17 7 0 10 -262144
-1 -1;
#X obj 1303 402 bng 15 250 50 0 empty empty empty 17 7 0 10 -262144
-1 -1;
#X obj 1361 515 print;
#X obj 1480 101 inlet;
#X obj 1469 398 osc~;
#X obj 1509 395 phasor~;
#X obj 1573 426 triangle~;
#X obj 1471 282 route 0 1 2 3;
#X obj 1456 217 pack f f;
#X obj 1574 395 phasor~;
#X obj 1658 394 phasor~;
#X obj 1657 429 expr~ $v1 > 0.5;
#X obj 1504 159 unpack f f;
#X obj 1442 516 *~;
#X obj 1504 515 *~;
#X obj 1578 517 *~;
#X obj 1662 522 *~;
#X obj 1467 446 r x;
#X obj 1456 479 == 0;
#X obj 1531 443 r x;
#X obj 1520 476 == 1;
#X obj 1606 451 r x;
#X obj 1597 479 == 2;
#X obj 1699 456 r x;
#X obj 1688 489 == 3;
#X obj 1564 567 *~;
#X obj 1695 260 / 127;
#X obj 1432 150 expr x;
#X floatatom 1434 180 5 0 0 0 - - -;
#X msg 1426 120 bang;
#X obj 1419 215 s x;
#X obj 1676 566 vline~;
#X obj 1695 289 select 0;
#X obj 1826 498 pack;
#X obj 1826 467 r attack;
#X obj 1767 496 pack;
#X obj 1767 465 r decay;
#X obj 1847 430 bng 15 250 50 0 empty empty empty 17 7 0 10 -262144
-1 -1;
#X obj 1772 429 bng 15 250 50 0 empty empty empty 17 7 0 10 -262144
-1 -1;
#X obj 1830 542 print;
#X obj 1942 130 inlet;
#X obj 1931 427 osc~;
#X obj 1971 424 phasor~;
#X obj 2035 455 triangle~;
#X obj 1933 311 route 0 1 2 3;
#X obj 1918 246 pack f f;
#X obj 2036 424 phasor~;
#X obj 2120 423 phasor~;
#X obj 2119 458 expr~ $v1 > 0.5;
#X obj 1966 188 unpack f f;
#X obj 1904 545 *~;
#X obj 1966 544 *~;
#X obj 2040 546 *~;
#X obj 2124 551 *~;
#X obj 1929 475 r x;
#X obj 1918 508 == 0;
#X obj 1993 472 r x;
#X obj 1982 505 == 1;
#X obj 2068 480 r x;
#X obj 2059 508 == 2;
#X obj 2161 485 r x;
#X obj 2150 518 == 3;
#X obj 2026 596 *~;
#X obj 2157 289 / 127;
#X obj 1894 179 expr x;
#X floatatom 1896 209 5 0 0 0 - - -;
#X msg 1888 149 bang;
#X obj 1881 244 s x;
#X obj 2138 595 vline~;
#X obj 2157 318 select 0;
#X obj 2288 527 pack;
#X obj 2288 496 r attack;
#X obj 2229 525 pack;
#X obj 2229 494 r decay;
#X obj 2309 459 bng 15 250 50 0 empty empty empty 17 7 0 10 -262144
-1 -1;
#X obj 2234 458 bng 15 250 50 0 empty empty empty 17 7 0 10 -262144
-1 -1;
#X obj 2292 571 print;
#X obj 2415 155 inlet;
#X obj 2404 452 osc~;
#X obj 2444 449 phasor~;
#X obj 2508 480 triangle~;
#X obj 2406 336 route 0 1 2 3;
#X obj 2391 271 pack f f;
#X obj 2509 449 phasor~;
#X obj 2593 448 phasor~;
#X obj 2592 483 expr~ $v1 > 0.5;
#X obj 2439 213 unpack f f;
#X obj 2377 570 *~;
#X obj 2439 569 *~;
#X obj 2513 571 *~;
#X obj 2597 576 *~;
#X obj 2402 500 r x;
#X obj 2391 533 == 0;
#X obj 2466 497 r x;
#X obj 2455 530 == 1;
#X obj 2541 505 r x;
#X obj 2532 533 == 2;
#X obj 2634 510 r x;
#X obj 2623 543 == 3;
#X obj 2499 621 *~;
#X obj 2630 314 / 127;
#X obj 2367 204 expr x;
#X floatatom 2369 234 5 0 0 0 - - -;
#X msg 2361 174 bang;
#X obj 2354 269 s x;
#X obj 2611 620 vline~;
#X obj 2630 343 select 0;
#X obj 2761 552 pack;
#X obj 2761 521 r attack;
#X obj 2702 550 pack;
#X obj 2702 519 r decay;
#X obj 2782 484 bng 15 250 50 0 empty empty empty 17 7 0 10 -262144
-1 -1;
#X obj 2707 483 bng 15 250 50 0 empty empty empty 17 7 0 10 -262144
-1 -1;
#X obj 2765 596 print;
#X obj 2865 181 inlet;
#X obj 2854 478 osc~;
#X obj 2894 475 phasor~;
#X obj 2958 506 triangle~;
#X obj 2856 362 route 0 1 2 3;
#X obj 2841 297 pack f f;
#X obj 2959 475 phasor~;
#X obj 3043 474 phasor~;
#X obj 3042 509 expr~ $v1 > 0.5;
#X obj 2889 239 unpack f f;
#X obj 2827 596 *~;
#X obj 2889 595 *~;
#X obj 2963 597 *~;
#X obj 3047 602 *~;
#X obj 2852 526 r x;
#X obj 2841 559 == 0;
#X obj 2916 523 r x;
#X obj 2905 556 == 1;
#X obj 2991 531 r x;
#X obj 2982 559 == 2;
#X obj 3084 536 r x;
#X obj 3073 569 == 3;
#X obj 2949 647 *~;
#X obj 3080 340 / 127;
#X obj 2817 230 expr x;
#X floatatom 2819 260 5 0 0 0 - - -;
#X msg 2811 200 bang;
#X obj 2804 295 s x;
#X obj 3061 646 vline~;
#X obj 3080 369 select 0;
#X obj 3211 578 pack;
#X obj 3211 547 r attack;
#X obj 3152 576 pack;
#X obj 3152 545 r decay;
#X obj 3232 510 bng 15 250 50 0 empty empty empty 17 7 0 10 -262144
-1 -1;
#X obj 3157 509 bng 15 250 50 0 empty empty empty 17 7 0 10 -262144
-1 -1;
#X obj 3215 622 print;
#X obj 3334 208 inlet;
#X obj 3323 505 osc~;
#X obj 3363 502 phasor~;
#X obj 3427 533 triangle~;
#X obj 3325 389 route 0 1 2 3;
#X obj 3310 324 pack f f;
#X obj 3428 502 phasor~;
#X obj 3512 501 phasor~;
#X obj 3511 536 expr~ $v1 > 0.5;
#X obj 3358 266 unpack f f;
#X obj 3296 623 *~;
#X obj 3358 622 *~;
#X obj 3432 624 *~;
#X obj 3516 629 *~;
#X obj 3321 553 r x;
#X obj 3310 586 == 0;
#X obj 3385 550 r x;
#X obj 3374 583 == 1;
#X obj 3460 558 r x;
#X obj 3451 586 == 2;
#X obj 3553 563 r x;
#X obj 3542 596 == 3;
#X obj 3418 674 *~;
#X obj 3549 367 / 127;
#X obj 3286 257 expr x;
#X floatatom 3288 287 5 0 0 0 - - -;
#X msg 3280 227 bang;
#X obj 3273 322 s x;
#X obj 3530 673 vline~;
#X obj 3549 396 select 0;
#X obj 3680 605 pack;
#X obj 3680 574 r attack;
#X obj 3621 603 pack;
#X obj 3621 572 r decay;
#X obj 3701 537 bng 15 250 50 0 empty empty empty 17 7 0 10 -262144
-1 -1;
#X obj 3626 536 bng 15 250 50 0 empty empty empty 17 7 0 10 -262144
-1 -1;
#X obj 3684 649 print;
#X obj 3814 236 inlet;
#X obj 3803 533 osc~;
#X obj 3843 530 phasor~;
#X obj 3907 561 triangle~;
#X obj 3805 417 route 0 1 2 3;
#X obj 3790 352 pack f f;
#X obj 3908 530 phasor~;
#X obj 3992 529 phasor~;
#X obj 3991 564 expr~ $v1 > 0.5;
#X obj 3838 294 unpack f f;
#X obj 3776 651 *~;
#X obj 3838 650 *~;
#X obj 3912 652 *~;
#X obj 3996 657 *~;
#X obj 3801 581 r x;
#X obj 3790 614 == 0;
#X obj 3865 578 r x;
#X obj 3854 611 == 1;
#X obj 3940 586 r x;
#X obj 3931 614 == 2;
#X obj 4033 591 r x;
#X obj 4022 624 == 3;
#X obj 3898 702 *~;
#X obj 4029 395 / 127;
#X obj 3766 285 expr x;
#X floatatom 3768 315 5 0 0 0 - - -;
#X msg 3760 255 bang;
#X obj 3753 350 s x;
#X obj 4010 701 vline~;
#X obj 4029 424 select 0;
#X obj 4160 633 pack;
#X obj 4160 602 r attack;
#X obj 4101 631 pack;
#X obj 4101 600 r decay;
#X obj 4181 565 bng 15 250 50 0 empty empty empty 17 7 0 10 -262144
-1 -1;
#X obj 4106 564 bng 15 250 50 0 empty empty empty 17 7 0 10 -262144
-1 -1;
#X obj 4164 677 print;
#X obj 4283 263 inlet;
#X obj 4272 560 osc~;
#X obj 4312 557 phasor~;
#X obj 4376 588 triangle~;
#X obj 4274 444 route 0 1 2 3;
#X obj 4259 379 pack f f;
#X obj 4377 557 phasor~;
#X obj 4461 556 phasor~;
#X obj 4460 591 expr~ $v1 > 0.5;
#X obj 4307 321 unpack f f;
#X obj 4245 678 *~;
#X obj 4307 677 *~;
#X obj 4381 679 *~;
#X obj 4465 684 *~;
#X obj 4270 608 r x;
#X obj 4259 641 == 0;
#X obj 4334 605 r x;
#X obj 4323 638 == 1;
#X obj 4409 613 r x;
#X obj 4400 641 == 2;
#X obj 4502 618 r x;
#X obj 4491 651 == 3;
#X obj 4367 729 *~;
#X obj 4498 422 / 127;
#X obj 4235 312 expr x;
#X floatatom 4237 342 5 0 0 0 - - -;
#X msg 4229 282 bang;
#X obj 4222 377 s x;
#X obj 4479 728 vline~;
#X obj 4498 451 select 0;
#X obj 4629 660 pack;
#X obj 4629 629 r attack;
#X obj 4570 658 pack;
#X obj 4570 627 r decay;
#X obj 4650 592 bng 15 250 50 0 empty empty empty 17 7 0 10 -262144
-1 -1;
#X obj 4575 591 bng 15 250 50 0 empty empty empty 17 7 0 10 -262144
-1 -1;
#X obj 4633 704 print;
#X obj 4235 95 bng 15 250 50 0 empty empty empty 17 7 0 10 -262144
-1 -1;
#X floatatom 4555 315 5 0 0 0 - - -;
#X connect 0 0 10 0;
#X connect 0 0 27 0;
#X connect 1 0 11 0;
#X connect 2 0 12 0;
#X connect 3 0 13 0;
#X connect 4 0 1 0;
#X connect 4 1 2 0;
#X connect 4 2 6 0;
#X connect 4 3 7 0;
#X connect 5 0 4 0;
#X connect 6 0 3 0;
#X connect 7 0 8 0;
#X connect 8 0 14 0;
#X connect 9 0 29 0;
#X connect 10 0 5 1;
#X connect 10 1 24 0;
#X connect 11 0 23 0;
#X connect 12 0 23 0;
#X connect 13 0 23 0;
#X connect 14 0 23 0;
#X connect 15 0 16 0;
#X connect 16 0 11 1;
#X connect 17 0 18 0;
#X connect 18 0 12 1;
#X connect 19 0 20 0;
#X connect 20 0 13 1;
#X connect 21 0 22 0;
#X connect 22 0 14 1;
#X connect 23 0 9 0;
#X connect 24 0 32 0;
#X connect 25 0 26 0;
#X connect 26 0 5 0;
#X connect 26 0 28 0;
#X connect 27 0 25 0;
#X connect 30 0 44 0;
#X connect 30 0 379 0;
#X connect 31 0 23 1;
#X connect 32 0 38 0;
#X connect 32 1 37 0;
#X connect 33 0 31 0;
#X connect 33 0 41 0;
#X connect 34 0 33 0;
#X connect 35 0 31 0;
#X connect 36 0 35 0;
#X connect 37 0 33 0;
#X connect 38 0 35 0;
#X connect 39 0 42 0;
#X connect 40 0 43 0;
#X connect 45 0 54 0;
#X connect 45 0 71 0;
#X connect 46 0 55 0;
#X connect 47 0 56 0;
#X connect 48 0 57 0;
#X connect 49 0 46 0;
#X connect 49 1 47 0;
#X connect 49 2 51 0;
#X connect 49 3 52 0;
#X connect 50 0 49 0;
#X connect 51 0 48 0;
#X connect 52 0 53 0;
#X connect 53 0 58 0;
#X connect 54 0 50 1;
#X connect 54 1 68 0;
#X connect 55 0 67 0;
#X connect 56 0 67 0;
#X connect 57 0 67 0;
#X connect 58 0 67 0;
#X connect 59 0 60 0;
#X connect 60 0 55 1;
#X connect 61 0 62 0;
#X connect 62 0 56 1;
#X connect 63 0 64 0;
#X connect 64 0 57 1;
#X connect 65 0 66 0;
#X connect 66 0 58 1;
#X connect 67 0 9 0;
#X connect 68 0 74 0;
#X connect 69 0 70 0;
#X connect 70 0 50 0;
#X connect 70 0 72 0;
#X connect 71 0 69 0;
#X connect 73 0 67 1;
#X connect 74 0 80 0;
#X connect 74 1 79 0;
#X connect 75 0 73 0;
#X connect 75 0 81 0;
#X connect 76 0 75 0;
#X connect 77 0 73 0;
#X connect 78 0 77 0;
#X connect 79 0 75 0;
#X connect 80 0 77 0;
#X connect 82 0 91 0;
#X connect 82 0 108 0;
#X connect 83 0 92 0;
#X connect 84 0 93 0;
#X connect 85 0 94 0;
#X connect 86 0 83 0;
#X connect 86 1 84 0;
#X connect 86 2 88 0;
#X connect 86 3 89 0;
#X connect 87 0 86 0;
#X connect 88 0 85 0;
#X connect 89 0 90 0;
#X connect 90 0 95 0;
#X connect 91 0 87 1;
#X connect 91 1 105 0;
#X connect 92 0 104 0;
#X connect 93 0 104 0;
#X connect 94 0 104 0;
#X connect 95 0 104 0;
#X connect 96 0 97 0;
#X connect 97 0 92 1;
#X connect 98 0 99 0;
#X connect 99 0 93 1;
#X connect 100 0 101 0;
#X connect 101 0 94 1;
#X connect 102 0 103 0;
#X connect 103 0 95 1;
#X connect 104 0 9 0;
#X connect 105 0 111 0;
#X connect 106 0 107 0;
#X connect 107 0 87 0;
#X connect 107 0 109 0;
#X connect 108 0 106 0;
#X connect 110 0 104 1;
#X connect 111 0 117 0;
#X connect 111 1 116 0;
#X connect 112 0 110 0;
#X connect 112 0 118 0;
#X connect 113 0 112 0;
#X connect 114 0 110 0;
#X connect 115 0 114 0;
#X connect 116 0 112 0;
#X connect 117 0 114 0;
#X connect 119 0 128 0;
#X connect 119 0 145 0;
#X connect 120 0 129 0;
#X connect 121 0 130 0;
#X connect 122 0 131 0;
#X connect 123 0 120 0;
#X connect 123 1 121 0;
#X connect 123 2 125 0;
#X connect 123 3 126 0;
#X connect 124 0 123 0;
#X connect 125 0 122 0;
#X connect 126 0 127 0;
#X connect 127 0 132 0;
#X connect 128 0 124 1;
#X connect 128 1 142 0;
#X connect 129 0 141 0;
#X connect 130 0 141 0;
#X connect 131 0 141 0;
#X connect 132 0 141 0;
#X connect 133 0 134 0;
#X connect 134 0 129 1;
#X connect 135 0 136 0;
#X connect 136 0 130 1;
#X connect 137 0 138 0;
#X connect 138 0 131 1;
#X connect 139 0 140 0;
#X connect 140 0 132 1;
#X connect 141 0 9 0;
#X connect 142 0 148 0;
#X connect 143 0 144 0;
#X connect 144 0 124 0;
#X connect 144 0 146 0;
#X connect 145 0 143 0;
#X connect 147 0 141 1;
#X connect 148 0 154 0;
#X connect 148 1 153 0;
#X connect 149 0 147 0;
#X connect 149 0 155 0;
#X connect 150 0 149 0;
#X connect 151 0 147 0;
#X connect 152 0 151 0;
#X connect 153 0 149 0;
#X connect 154 0 151 0;
#X connect 156 0 165 0;
#X connect 156 0 182 0;
#X connect 157 0 166 0;
#X connect 158 0 167 0;
#X connect 159 0 168 0;
#X connect 160 0 157 0;
#X connect 160 1 158 0;
#X connect 160 2 162 0;
#X connect 160 3 163 0;
#X connect 161 0 160 0;
#X connect 162 0 159 0;
#X connect 163 0 164 0;
#X connect 164 0 169 0;
#X connect 165 0 161 1;
#X connect 165 1 179 0;
#X connect 166 0 178 0;
#X connect 167 0 178 0;
#X connect 168 0 178 0;
#X connect 169 0 178 0;
#X connect 170 0 171 0;
#X connect 171 0 166 1;
#X connect 172 0 173 0;
#X connect 173 0 167 1;
#X connect 174 0 175 0;
#X connect 175 0 168 1;
#X connect 176 0 177 0;
#X connect 177 0 169 1;
#X connect 178 0 9 0;
#X connect 179 0 185 0;
#X connect 180 0 181 0;
#X connect 181 0 161 0;
#X connect 181 0 183 0;
#X connect 182 0 180 0;
#X connect 184 0 178 1;
#X connect 185 0 191 0;
#X connect 185 1 190 0;
#X connect 186 0 184 0;
#X connect 186 0 192 0;
#X connect 187 0 186 0;
#X connect 188 0 184 0;
#X connect 189 0 188 0;
#X connect 190 0 186 0;
#X connect 191 0 188 0;
#X connect 193 0 202 0;
#X connect 193 0 219 0;
#X connect 194 0 203 0;
#X connect 195 0 204 0;
#X connect 196 0 205 0;
#X connect 197 0 194 0;
#X connect 197 1 195 0;
#X connect 197 2 199 0;
#X connect 197 3 200 0;
#X connect 198 0 197 0;
#X connect 199 0 196 0;
#X connect 200 0 201 0;
#X connect 201 0 206 0;
#X connect 202 0 198 1;
#X connect 202 1 216 0;
#X connect 203 0 215 0;
#X connect 204 0 215 0;
#X connect 205 0 215 0;
#X connect 206 0 215 0;
#X connect 207 0 208 0;
#X connect 208 0 203 1;
#X connect 209 0 210 0;
#X connect 210 0 204 1;
#X connect 211 0 212 0;
#X connect 212 0 205 1;
#X connect 213 0 214 0;
#X connect 214 0 206 1;
#X connect 215 0 9 0;
#X connect 216 0 222 0;
#X connect 217 0 218 0;
#X connect 218 0 198 0;
#X connect 218 0 220 0;
#X connect 219 0 217 0;
#X connect 221 0 215 1;
#X connect 222 0 228 0;
#X connect 222 1 227 0;
#X connect 223 0 221 0;
#X connect 223 0 229 0;
#X connect 224 0 223 0;
#X connect 225 0 221 0;
#X connect 226 0 225 0;
#X connect 227 0 223 0;
#X connect 228 0 225 0;
#X connect 230 0 239 0;
#X connect 230 0 256 0;
#X connect 231 0 240 0;
#X connect 232 0 241 0;
#X connect 233 0 242 0;
#X connect 234 0 231 0;
#X connect 234 1 232 0;
#X connect 234 2 236 0;
#X connect 234 3 237 0;
#X connect 235 0 234 0;
#X connect 236 0 233 0;
#X connect 237 0 238 0;
#X connect 238 0 243 0;
#X connect 239 0 235 1;
#X connect 239 1 253 0;
#X connect 240 0 252 0;
#X connect 241 0 252 0;
#X connect 242 0 252 0;
#X connect 243 0 252 0;
#X connect 244 0 245 0;
#X connect 245 0 240 1;
#X connect 246 0 247 0;
#X connect 247 0 241 1;
#X connect 248 0 249 0;
#X connect 249 0 242 1;
#X connect 250 0 251 0;
#X connect 251 0 243 1;
#X connect 252 0 9 0;
#X connect 253 0 259 0;
#X connect 254 0 255 0;
#X connect 255 0 235 0;
#X connect 255 0 257 0;
#X connect 256 0 254 0;
#X connect 258 0 252 1;
#X connect 259 0 265 0;
#X connect 259 1 264 0;
#X connect 260 0 258 0;
#X connect 260 0 266 0;
#X connect 261 0 260 0;
#X connect 262 0 258 0;
#X connect 263 0 262 0;
#X connect 264 0 260 0;
#X connect 265 0 262 0;
#X connect 267 0 276 0;
#X connect 267 0 293 0;
#X connect 268 0 277 0;
#X connect 269 0 278 0;
#X connect 270 0 279 0;
#X connect 271 0 268 0;
#X connect 271 1 269 0;
#X connect 271 2 273 0;
#X connect 271 3 274 0;
#X connect 272 0 271 0;
#X connect 273 0 270 0;
#X connect 274 0 275 0;
#X connect 275 0 280 0;
#X connect 276 0 272 1;
#X connect 276 1 290 0;
#X connect 277 0 289 0;
#X connect 278 0 289 0;
#X connect 279 0 289 0;
#X connect 280 0 289 0;
#X connect 281 0 282 0;
#X connect 282 0 277 1;
#X connect 283 0 284 0;
#X connect 284 0 278 1;
#X connect 285 0 286 0;
#X connect 286 0 279 1;
#X connect 287 0 288 0;
#X connect 288 0 280 1;
#X connect 289 0 9 0;
#X connect 290 0 296 0;
#X connect 291 0 292 0;
#X connect 292 0 272 0;
#X connect 292 0 294 0;
#X connect 293 0 291 0;
#X connect 295 0 289 1;
#X connect 296 0 302 0;
#X connect 296 1 301 0;
#X connect 297 0 295 0;
#X connect 297 0 303 0;
#X connect 298 0 297 0;
#X connect 299 0 295 0;
#X connect 300 0 299 0;
#X connect 301 0 297 0;
#X connect 302 0 299 0;
#X connect 304 0 313 0;
#X connect 304 0 330 0;
#X connect 305 0 314 0;
#X connect 306 0 315 0;
#X connect 307 0 316 0;
#X connect 308 0 305 0;
#X connect 308 1 306 0;
#X connect 308 2 310 0;
#X connect 308 3 311 0;
#X connect 309 0 308 0;
#X connect 310 0 307 0;
#X connect 311 0 312 0;
#X connect 312 0 317 0;
#X connect 313 0 309 1;
#X connect 313 1 327 0;
#X connect 314 0 326 0;
#X connect 315 0 326 0;
#X connect 316 0 326 0;
#X connect 317 0 326 0;
#X connect 318 0 319 0;
#X connect 319 0 314 1;
#X connect 320 0 321 0;
#X connect 321 0 315 1;
#X connect 322 0 323 0;
#X connect 323 0 316 1;
#X connect 324 0 325 0;
#X connect 325 0 317 1;
#X connect 326 0 9 0;
#X connect 327 0 333 0;
#X connect 328 0 329 0;
#X connect 329 0 309 0;
#X connect 329 0 331 0;
#X connect 330 0 328 0;
#X connect 332 0 326 1;
#X connect 333 0 339 0;
#X connect 333 1 338 0;
#X connect 334 0 332 0;
#X connect 334 0 340 0;
#X connect 335 0 334 0;
#X connect 336 0 332 0;
#X connect 337 0 336 0;
#X connect 338 0 334 0;
#X connect 339 0 336 0;
#X connect 341 0 350 0;
#X connect 341 0 367 0;
#X connect 342 0 351 0;
#X connect 343 0 352 0;
#X connect 344 0 353 0;
#X connect 345 0 342 0;
#X connect 345 1 343 0;
#X connect 345 2 347 0;
#X connect 345 3 348 0;
#X connect 346 0 345 0;
#X connect 347 0 344 0;
#X connect 348 0 349 0;
#X connect 349 0 354 0;
#X connect 350 0 346 1;
#X connect 350 1 364 0;
#X connect 351 0 363 0;
#X connect 352 0 363 0;
#X connect 353 0 363 0;
#X connect 354 0 363 0;
#X connect 355 0 356 0;
#X connect 356 0 351 1;
#X connect 357 0 358 0;
#X connect 358 0 352 1;
#X connect 359 0 360 0;
#X connect 360 0 353 1;
#X connect 361 0 362 0;
#X connect 362 0 354 1;
#X connect 363 0 9 0;
#X connect 364 0 370 0;
#X connect 365 0 366 0;
#X connect 366 0 346 0;
#X connect 366 0 368 0;
#X connect 367 0 365 0;
#X connect 369 0 363 1;
#X connect 370 0 376 0;
#X connect 370 1 375 0;
#X connect 371 0 369 0;
#X connect 371 0 377 0;
#X connect 372 0 371 0;
#X connect 373 0 369 0;
#X connect 374 0 373 0;
#X connect 375 0 371 0;
#X connect 376 0 373 0;
#X connect 378 0 27 0;
#X connect 378 0 71 0;
#X connect 378 0 108 0;
#X connect 378 0 145 0;
#X connect 378 0 182 0;
#X connect 378 0 219 0;
#X connect 378 0 256 0;
#X connect 378 0 293 0;
#X connect 378 0 330 0;
#X connect 378 0 367 0;
#X connect 379 0 378 0;
#X restore 480 561 pd OSC Genertor;
#X f 23;
#X obj 111 390 pack f f;
#X obj 205 391 pack f f;
#X obj 316 394 pack f f;
#X obj 698 587 hradio 15 1 0 4 empty empty empty 0 -8 0 10 -262144
-1 -1 1;
#X obj 407 388 pack f f;
#X obj 505 390 pack f f;
#X obj 596 384 pack f f;
#X obj 699 384 pack f f;
#X obj 792 381 pack f f;
#X obj 880 381 pack f f;
#X obj 989 388 pack f f;
#X obj 318 688 loadbang;
#X msg 740 513 1 50;
#X obj 965 470 loadbang;
#X msg 929 529 1 1000 \, 0 0 2000 \, 1 1000 3000 \, 0;
#X msg 846 545 0 50;
#X connect 0 0 33 0;
#X connect 1 0 2 0;
#X connect 1 1 3 0;
#X connect 2 0 34 0;
#X connect 3 0 63 1;
#X connect 4 0 5 0;
#X connect 4 1 6 0;
#X connect 5 0 35 0;
#X connect 6 0 64 1;
#X connect 7 0 8 0;
#X connect 7 1 9 0;
#X connect 8 0 36 0;
#X connect 9 0 65 1;
#X connect 10 0 11 0;
#X connect 10 1 12 0;
#X connect 11 0 37 0;
#X connect 12 0 67 1;
#X connect 13 0 61 1;
#X connect 15 0 16 0;
#X connect 15 1 17 0;
#X connect 16 0 38 0;
#X connect 17 0 68 1;
#X connect 18 0 19 0;
#X connect 18 1 20 0;
#X connect 19 0 39 0;
#X connect 20 0 69 1;
#X connect 21 0 22 0;
#X connect 21 1 23 0;
#X connect 22 0 40 0;
#X connect 23 0 70 1;
#X connect 24 0 25 0;
#X connect 24 1 26 0;
#X connect 25 0 41 0;
#X connect 26 0 71 1;
#X connect 27 0 28 0;
#X connect 27 1 29 0;
#X connect 28 0 42 0;
#X connect 29 0 72 1;
#X connect 30 0 31 0;
#X connect 30 1 32 0;
#X connect 31 0 43 0;
#X connect 32 0 73 1;
#X connect 33 0 1 0;
#X connect 33 1 4 0;
#X connect 33 2 7 0;
#X connect 33 3 10 0;
#X connect 33 4 15 0;
#X connect 33 5 18 0;
#X connect 33 6 21 0;
#X connect 33 7 24 0;
#X connect 33 8 27 0;
#X connect 33 9 30 0;
#X connect 34 0 63 0;
#X connect 35 0 64 0;
#X connect 36 0 65 0;
#X connect 37 0 67 0;
#X connect 38 0 68 0;
#X connect 39 0 69 0;
#X connect 40 0 70 0;
#X connect 41 0 71 0;
#X connect 42 0 72 0;
#X connect 43 0 73 0;
#X connect 44 0 0 0;
#X connect 44 1 0 1;
#X connect 44 2 0 2;
#X connect 45 0 44 0;
#X connect 46 0 49 0;
#X connect 49 0 47 0;
#X connect 50 0 51 0;
#X connect 51 0 52 1;
#X connect 52 0 53 1;
#X connect 52 1 53 2;
#X connect 52 2 53 3;
#X connect 52 3 53 4;
#X connect 53 0 61 0;
#X connect 53 0 47 0;
#X connect 54 0 52 2;
#X connect 55 0 60 0;
#X connect 60 0 53 0;
#X connect 61 0 14 0;
#X connect 61 0 14 1;
#X connect 62 0 52 0;
#X connect 63 0 62 0;
#X connect 64 0 62 1;
#X connect 65 0 62 2;
#X connect 66 0 62 12;
#X connect 67 0 62 3;
#X connect 68 0 62 4;
#X connect 69 0 62 5;
#X connect 70 0 62 6;
#X connect 71 0 62 7;
#X connect 72 0 62 8;
#X connect 73 0 62 9;
#X connect 74 0 46 0;
#X connect 75 0 62 10;
#X connect 76 0 75 0;
#X connect 76 0 78 0;
#X connect 78 0 62 11;
#X coords 0 0 2 2 0 0 0;
