#N canvas -8 -8 2560 1397 12;
#X declare -lib iemlib;
#X declare -lib cyclone;
#X obj 310 264 unpack f f;
#X floatatom 308 300 5 0 0 0 - - -;
#X obj 366 305 tgl 15 0 empty empty empty 17 7 0 10 -262144 -1 -1 0
1;
#X obj 415 265 unpack f f;
#X floatatom 413 301 5 0 0 0 - - -;
#X obj 480 310 tgl 15 0 empty empty empty 17 7 0 10 -262144 -1 -1 0
1;
#X obj 509 271 unpack f f;
#X floatatom 507 307 5 0 0 0 - - -;
#X obj 574 316 tgl 15 0 empty empty empty 17 7 0 10 -262144 -1 -1 0
1;
#X obj 603 274 unpack f f;
#X floatatom 607 309 5 0 0 0 - - -;
#X obj 668 317 tgl 15 0 empty empty empty 17 7 0 10 -262144 -1 -1 0
1;
#X obj 814 821 vsl 15 128 0 1 0 0 empty empty Volume 0 -9 0 10 -261234
-1 -1 2700 1;
#X obj 624 970 dac~;
#X obj 707 274 unpack f f;
#X floatatom 705 310 5 0 0 0 - - -;
#X obj 763 315 tgl 15 0 empty empty empty 17 7 0 10 -262144 -1 -1 0
1;
#X obj 812 275 unpack f f;
#X floatatom 810 311 5 0 0 0 - - -;
#X obj 877 320 tgl 15 0 empty empty empty 17 7 0 10 -262144 -1 -1 0
1;
#X obj 906 281 unpack f f;
#X floatatom 904 317 5 0 0 0 - - -;
#X obj 971 326 tgl 15 0 empty empty empty 17 7 0 10 -262144 -1 -1 0
1;
#X obj 1000 284 unpack f f;
#X floatatom 1004 319 5 0 0 0 - - -;
#X obj 1063 321 tgl 15 0 empty empty empty 17 7 0 10 -262144 -1 -1
0 1;
#X obj 1101 286 unpack f f;
#X floatatom 1099 322 5 0 0 0 - - -;
#X obj 1166 331 tgl 15 0 empty empty empty 17 7 0 10 -262144 -1 -1
0 1;
#X obj 1201 289 unpack f f;
#X floatatom 1205 324 5 0 0 0 - - -;
#X obj 1264 326 tgl 15 0 empty empty empty 17 7 0 10 -262144 -1 -1
0 1;
#X obj 144 200 route 1 2 3 4 5 6 7 8 9 10;
#X obj 292 332 KeyToNote;
#X obj 400 335 KeyToNote;
#X obj 510 338 KeyToNote;
#X obj 602 340 KeyToNote;
#X obj 710 340 KeyToNote;
#X obj 814 344 KeyToNote;
#X obj 907 346 KeyToNote;
#X obj 1004 349 KeyToNote;
#X obj 1087 354 KeyToNote;
#X obj 1199 356 KeyToNote;
#N canvas -8 -8 2560 1397 getKey 0;
#X obj 114 20 key;
#X obj 1324 -44 keyup;
#X msg 1550 372 \$1 127;
#X msg 1733 379 \$1 0;
#X obj 39 188 spigot;
#X obj 70 154 tgl 15 0 empty empty empty 17 7 0 10 -262144 -1 -1 1
1;
#X msg 68 214 0;
#X msg 1317 88 1;
#X msg 114 46 \$1 \$1;
#X msg 1324 -21 \$1 \$1;
#X msg 1354 88 1;
#X msg 1394 88 1;
#X msg 1431 87 1;
#X obj 94 186 spigot;
#X obj 125 152 tgl 15 0 empty empty empty 17 7 0 10 -262144 -1 -1 1
1;
#X msg 114 214 0;
#X obj 152 188 spigot;
#X obj 183 154 tgl 15 0 empty empty empty 17 7 0 10 -262144 -1 -1 1
1;
#X msg 172 216 0;
#X obj 207 188 spigot;
#X obj 238 154 tgl 15 0 empty empty empty 17 7 0 10 -262144 -1 -1 1
1;
#X msg 227 216 0;
#X obj 112 71 route 113 119 101 114 116 121 117 105 111 112;
#X obj 264 190 spigot;
#X obj 295 156 tgl 15 0 empty empty empty 17 7 0 10 -262144 -1 -1 1
1;
#X msg 293 216 0;
#X obj 319 188 spigot;
#X obj 350 154 tgl 15 0 empty empty empty 17 7 0 10 -262144 -1 -1 1
1;
#X msg 339 216 0;
#X obj 377 190 spigot;
#X obj 408 156 tgl 15 0 empty empty empty 17 7 0 10 -262144 -1 -1 1
1;
#X msg 397 218 0;
#X obj 432 190 spigot;
#X obj 463 156 tgl 15 0 empty empty empty 17 7 0 10 -262144 -1 -1 1
1;
#X msg 452 218 0;
#X obj 487 188 spigot;
#X obj 518 154 tgl 15 0 empty empty empty 17 7 0 10 -262144 -1 -1 1
1;
#X msg 507 216 0;
#X obj 542 188 spigot;
#X obj 573 154 tgl 15 0 empty empty empty 17 7 0 10 -262144 -1 -1 1
1;
#X msg 562 216 0;
#X obj 1327 8 route 113 119 101 114 116 121 117 105 111 112;
#X msg 1474 85 1;
#X msg 1511 85 1;
#X msg 1551 85 1;
#X msg 1588 84 1;
#X msg 1624 87 1;
#X msg 1661 86 1;
#X obj 600 187 spigot;
#X obj 631 153 tgl 15 0 empty empty empty 17 7 0 10 -262144 -1 -1 1
1;
#X msg 629 213 0;
#X obj 655 185 spigot;
#X obj 686 151 tgl 15 0 empty empty empty 17 7 0 10 -262144 -1 -1 1
1;
#X msg 675 213 0;
#X obj 713 187 spigot;
#X obj 744 153 tgl 15 0 empty empty empty 17 7 0 10 -262144 -1 -1 1
1;
#X msg 733 215 0;
#X obj 768 187 spigot;
#X obj 799 153 tgl 15 0 empty empty empty 17 7 0 10 -262144 -1 -1 1
1;
#X msg 788 215 0;
#X obj 825 189 spigot;
#X obj 856 155 tgl 15 0 empty empty empty 17 7 0 10 -262144 -1 -1 1
1;
#X msg 854 215 0;
#X obj 880 187 spigot;
#X obj 911 153 tgl 15 0 empty empty empty 17 7 0 10 -262144 -1 -1 1
1;
#X msg 900 215 0;
#X obj 938 189 spigot;
#X obj 969 155 tgl 15 0 empty empty empty 17 7 0 10 -262144 -1 -1 1
1;
#X msg 958 217 0;
#X msg 1699 83 1;
#X msg 1736 83 1;
#X msg 1776 83 1;
#X msg 1813 82 1;
#X msg 1856 80 1;
#X msg 1893 80 1;
#X msg 1933 80 1;
#X obj 1594 419 outlet;
#X obj 472 100 route 50 51 53 54 55 57 48;
#X obj 1707 36 route 50 51 53 54 55 57 48;
#X obj 927 94 loadbang;
#X obj 699 58 route 122 120 99 118 98 110 109 44 46 47;
#X obj 997 189 spigot;
#X obj 1028 155 tgl 15 0 empty empty empty 17 7 0 10 -262144 -1 -1
1 1;
#X msg 1026 215 0;
#X obj 1052 187 spigot;
#X obj 1083 153 tgl 15 0 empty empty empty 17 7 0 10 -262144 -1 -1
1 1;
#X msg 1072 215 0;
#X obj 1110 189 spigot;
#X obj 1141 155 tgl 15 0 empty empty empty 17 7 0 10 -262144 -1 -1
1 1;
#X msg 1130 217 0;
#X obj 1165 189 spigot;
#X obj 1196 155 tgl 15 0 empty empty empty 17 7 0 10 -262144 -1 -1
1 1;
#X msg 1185 217 0;
#X obj 1222 191 spigot;
#X obj 1253 157 tgl 15 0 empty empty empty 17 7 0 10 -262144 -1 -1
1 1;
#X msg 1251 217 0;
#X obj 1277 189 spigot;
#X obj 1308 155 tgl 15 0 empty empty empty 17 7 0 10 -262144 -1 -1
1 1;
#X msg 1297 217 0;
#X obj 1335 191 spigot;
#X obj 1366 157 tgl 15 0 empty empty empty 17 7 0 10 -262144 -1 -1
1 1;
#X msg 1355 219 0;
#X obj 1390 191 spigot;
#X obj 1421 157 tgl 15 0 empty empty empty 17 7 0 10 -262144 -1 -1
1 1;
#X msg 1410 219 0;
#X obj 1445 189 spigot;
#X obj 1476 155 tgl 15 0 empty empty empty 17 7 0 10 -262144 -1 -1
1 1;
#X msg 1465 217 0;
#X obj 1500 189 spigot;
#X obj 1531 155 tgl 15 0 empty empty empty 17 7 0 10 -262144 -1 -1
1 1;
#X msg 1520 217 0;
#X obj 1558 189 spigot;
#X obj 1589 154 tgl 15 0 empty empty empty 17 7 0 10 -262144 -1 -1
1 1;
#X msg 1587 214 0;
#X obj 1613 186 spigot;
#X obj 1644 152 tgl 15 0 empty empty empty 17 7 0 10 -262144 -1 -1
1 1;
#X msg 1633 214 0;
#X obj 1671 188 spigot;
#X obj 1702 154 tgl 15 0 empty empty empty 17 7 0 10 -262144 -1 -1
1 1;
#X msg 1691 216 0;
#X obj 1726 188 spigot;
#X obj 1757 154 tgl 15 0 empty empty empty 17 7 0 10 -262144 -1 -1
1 1;
#X msg 1746 216 0;
#X obj 1783 190 spigot;
#X obj 1814 156 tgl 15 0 empty empty empty 17 7 0 10 -262144 -1 -1
1 1;
#X msg 1812 216 0;
#X obj 1838 188 spigot;
#X obj 1869 154 tgl 15 0 empty empty empty 17 7 0 10 -262144 -1 -1
1 1;
#X msg 1858 216 0;
#X obj 1896 190 spigot;
#X obj 1927 156 tgl 15 0 empty empty empty 17 7 0 10 -262144 -1 -1
1 1;
#X msg 1916 218 0;
#X obj 1951 190 spigot;
#X obj 1982 156 tgl 15 0 empty empty empty 17 7 0 10 -262144 -1 -1
1 1;
#X msg 1971 218 0;
#X obj 1973 11 route 122 120 99 118 98 110 109 44 46 47;
#X msg 1969 79 1;
#X msg 2007 81 1;
#X msg 2046 79 1;
#X msg 2126 77 1;
#X msg 2169 75 1;
#X msg 2206 75 1;
#X msg 2246 75 1;
#X msg 2283 74 1;
#X msg 2319 77 1;
#X msg 2360 74 1;
#X msg 2394 73 1;
#X msg 2431 73 1;
#X msg 2471 73 1;
#X msg 2508 72 1;
#X msg 2551 70 1;
#X msg 2586 72 1;
#X msg 2626 72 1;
#X msg 2088 78 1;
#X obj 1032 67 route 115 100 102 104 106 108 59 39;
#X obj 2285 34 route 115 100 102 104 106 108 59 39;
#X connect 0 0 8 0;
#X connect 1 0 9 0;
#X connect 2 0 76 0;
#X connect 3 0 76 0;
#X connect 4 0 6 0;
#X connect 4 0 2 0;
#X connect 5 0 4 1;
#X connect 6 0 5 0;
#X connect 7 0 5 0;
#X connect 8 0 22 0;
#X connect 9 0 41 0;
#X connect 10 0 14 0;
#X connect 11 0 17 0;
#X connect 12 0 20 0;
#X connect 13 0 15 0;
#X connect 13 0 2 0;
#X connect 14 0 13 1;
#X connect 15 0 14 0;
#X connect 16 0 18 0;
#X connect 16 0 2 0;
#X connect 17 0 16 1;
#X connect 18 0 17 0;
#X connect 19 0 21 0;
#X connect 19 0 2 0;
#X connect 20 0 19 1;
#X connect 21 0 20 0;
#X connect 22 0 4 0;
#X connect 22 1 13 0;
#X connect 22 2 16 0;
#X connect 22 3 19 0;
#X connect 22 4 23 0;
#X connect 22 5 26 0;
#X connect 22 6 29 0;
#X connect 22 7 32 0;
#X connect 22 8 35 0;
#X connect 22 9 38 0;
#X connect 22 10 77 0;
#X connect 23 0 25 0;
#X connect 23 0 2 0;
#X connect 24 0 23 1;
#X connect 25 0 24 0;
#X connect 26 0 28 0;
#X connect 26 0 2 0;
#X connect 27 0 26 1;
#X connect 28 0 27 0;
#X connect 29 0 31 0;
#X connect 29 0 2 0;
#X connect 30 0 29 1;
#X connect 31 0 30 0;
#X connect 32 0 34 0;
#X connect 32 0 2 0;
#X connect 33 0 32 1;
#X connect 34 0 33 0;
#X connect 35 0 37 0;
#X connect 35 0 2 0;
#X connect 36 0 35 1;
#X connect 37 0 36 0;
#X connect 38 0 40 0;
#X connect 38 0 2 0;
#X connect 39 0 38 1;
#X connect 40 0 39 0;
#X connect 41 0 7 0;
#X connect 41 0 3 0;
#X connect 41 1 10 0;
#X connect 41 1 3 0;
#X connect 41 2 11 0;
#X connect 41 2 3 0;
#X connect 41 3 12 0;
#X connect 41 3 3 0;
#X connect 41 4 42 0;
#X connect 41 4 3 0;
#X connect 41 5 43 0;
#X connect 41 5 3 0;
#X connect 41 6 44 0;
#X connect 41 6 3 0;
#X connect 41 7 45 0;
#X connect 41 7 3 0;
#X connect 41 8 46 0;
#X connect 41 8 3 0;
#X connect 41 9 47 0;
#X connect 41 9 3 0;
#X connect 41 10 78 0;
#X connect 42 0 24 0;
#X connect 43 0 27 0;
#X connect 44 0 30 0;
#X connect 45 0 33 0;
#X connect 46 0 36 0;
#X connect 47 0 39 0;
#X connect 48 0 50 0;
#X connect 48 0 2 0;
#X connect 49 0 48 1;
#X connect 50 0 49 0;
#X connect 51 0 53 0;
#X connect 51 0 2 0;
#X connect 52 0 51 1;
#X connect 53 0 52 0;
#X connect 54 0 56 0;
#X connect 54 0 2 0;
#X connect 55 0 54 1;
#X connect 56 0 55 0;
#X connect 57 0 59 0;
#X connect 57 0 2 0;
#X connect 58 0 57 1;
#X connect 59 0 58 0;
#X connect 60 0 62 0;
#X connect 60 0 2 0;
#X connect 61 0 60 1;
#X connect 62 0 61 0;
#X connect 63 0 65 0;
#X connect 63 0 2 0;
#X connect 64 0 63 1;
#X connect 65 0 64 0;
#X connect 66 0 68 0;
#X connect 66 0 2 0;
#X connect 67 0 66 1;
#X connect 68 0 67 0;
#X connect 69 0 49 0;
#X connect 70 0 52 0;
#X connect 71 0 55 0;
#X connect 72 0 58 0;
#X connect 73 0 61 0;
#X connect 74 0 64 0;
#X connect 75 0 67 0;
#X connect 77 0 48 0;
#X connect 77 1 51 0;
#X connect 77 2 54 0;
#X connect 77 3 57 0;
#X connect 77 4 60 0;
#X connect 77 5 63 0;
#X connect 77 6 66 0;
#X connect 77 7 80 0;
#X connect 78 0 69 0;
#X connect 78 0 3 0;
#X connect 78 1 70 0;
#X connect 78 1 3 0;
#X connect 78 2 71 0;
#X connect 78 2 3 0;
#X connect 78 3 72 0;
#X connect 78 3 3 0;
#X connect 78 4 73 0;
#X connect 78 4 3 0;
#X connect 78 5 74 0;
#X connect 78 5 3 0;
#X connect 78 6 75 0;
#X connect 78 6 3 0;
#X connect 78 7 135 0;
#X connect 79 0 5 0;
#X connect 79 0 14 0;
#X connect 79 0 17 0;
#X connect 79 0 20 0;
#X connect 79 0 24 0;
#X connect 79 0 27 0;
#X connect 79 0 30 0;
#X connect 79 0 33 0;
#X connect 79 0 36 0;
#X connect 79 0 39 0;
#X connect 79 0 49 0;
#X connect 79 0 52 0;
#X connect 79 0 55 0;
#X connect 79 0 58 0;
#X connect 79 0 61 0;
#X connect 79 0 64 0;
#X connect 79 0 67 0;
#X connect 79 0 85 0;
#X connect 79 0 88 0;
#X connect 79 0 91 0;
#X connect 79 0 97 0;
#X connect 79 0 94 0;
#X connect 79 0 100 0;
#X connect 79 0 103 0;
#X connect 79 0 106 0;
#X connect 79 0 109 0;
#X connect 79 0 112 0;
#X connect 79 0 115 0;
#X connect 79 0 118 0;
#X connect 79 0 121 0;
#X connect 79 0 124 0;
#X connect 79 0 127 0;
#X connect 79 0 130 0;
#X connect 79 0 133 0;
#X connect 80 0 81 0;
#X connect 80 1 84 0;
#X connect 80 2 87 0;
#X connect 80 3 90 0;
#X connect 80 4 93 0;
#X connect 80 5 96 0;
#X connect 80 6 99 0;
#X connect 80 7 102 0;
#X connect 80 8 105 0;
#X connect 80 9 108 0;
#X connect 80 10 154 0;
#X connect 81 0 83 0;
#X connect 81 0 2 0;
#X connect 82 0 81 1;
#X connect 83 0 82 0;
#X connect 84 0 86 0;
#X connect 84 0 2 0;
#X connect 85 0 84 1;
#X connect 86 0 85 0;
#X connect 87 0 89 0;
#X connect 87 0 2 0;
#X connect 88 0 87 1;
#X connect 89 0 88 0;
#X connect 90 0 92 0;
#X connect 90 0 2 0;
#X connect 91 0 90 1;
#X connect 92 0 91 0;
#X connect 93 0 95 0;
#X connect 93 0 2 0;
#X connect 94 0 93 1;
#X connect 95 0 94 0;
#X connect 96 0 98 0;
#X connect 96 0 2 0;
#X connect 97 0 96 1;
#X connect 98 0 97 0;
#X connect 99 0 101 0;
#X connect 99 0 2 0;
#X connect 100 0 99 1;
#X connect 101 0 100 0;
#X connect 102 0 104 0;
#X connect 102 0 2 0;
#X connect 103 0 102 1;
#X connect 104 0 103 0;
#X connect 105 0 107 0;
#X connect 105 0 2 0;
#X connect 106 0 105 1;
#X connect 107 0 106 0;
#X connect 108 0 110 0;
#X connect 108 0 2 0;
#X connect 109 0 108 1;
#X connect 110 0 109 0;
#X connect 111 0 113 0;
#X connect 111 0 2 0;
#X connect 112 0 111 1;
#X connect 113 0 112 0;
#X connect 114 0 116 0;
#X connect 114 0 2 0;
#X connect 115 0 114 1;
#X connect 116 0 115 0;
#X connect 117 0 119 0;
#X connect 117 0 2 0;
#X connect 118 0 117 1;
#X connect 119 0 118 0;
#X connect 120 0 122 0;
#X connect 120 0 2 0;
#X connect 121 0 120 1;
#X connect 122 0 121 0;
#X connect 123 0 125 0;
#X connect 123 0 2 0;
#X connect 124 0 123 1;
#X connect 125 0 124 0;
#X connect 126 0 128 0;
#X connect 126 0 2 0;
#X connect 127 0 126 1;
#X connect 128 0 127 0;
#X connect 129 0 131 0;
#X connect 129 0 2 0;
#X connect 130 0 129 1;
#X connect 131 0 130 0;
#X connect 132 0 134 0;
#X connect 132 0 2 0;
#X connect 133 0 132 1;
#X connect 134 0 133 0;
#X connect 135 0 136 0;
#X connect 135 0 3 0;
#X connect 135 1 137 0;
#X connect 135 1 3 0;
#X connect 135 2 138 0;
#X connect 135 2 3 0;
#X connect 135 3 153 0;
#X connect 135 3 3 0;
#X connect 135 4 139 0;
#X connect 135 4 3 0;
#X connect 135 5 140 0;
#X connect 135 5 3 0;
#X connect 135 6 141 0;
#X connect 135 6 3 0;
#X connect 135 7 142 0;
#X connect 135 7 3 0;
#X connect 135 8 143 0;
#X connect 135 8 3 0;
#X connect 135 9 144 0;
#X connect 135 9 3 0;
#X connect 135 10 155 0;
#X connect 136 0 82 0;
#X connect 137 0 85 0;
#X connect 138 0 88 0;
#X connect 139 0 94 0;
#X connect 140 0 97 0;
#X connect 141 0 100 0;
#X connect 142 0 103 0;
#X connect 143 0 106 0;
#X connect 144 0 109 0;
#X connect 145 0 112 0;
#X connect 146 0 115 0;
#X connect 147 0 118 0;
#X connect 148 0 121 0;
#X connect 149 0 124 0;
#X connect 150 0 127 0;
#X connect 151 0 130 0;
#X connect 152 0 133 0;
#X connect 153 0 91 0;
#X connect 154 0 111 0;
#X connect 154 1 114 0;
#X connect 154 2 117 0;
#X connect 154 3 120 0;
#X connect 154 4 123 0;
#X connect 154 5 126 0;
#X connect 154 6 129 0;
#X connect 154 7 132 0;
#X connect 155 0 145 0;
#X connect 155 0 3 0;
#X connect 155 1 146 0;
#X connect 155 1 3 0;
#X connect 155 2 147 0;
#X connect 155 2 3 0;
#X connect 155 3 148 0;
#X connect 155 3 3 0;
#X connect 155 4 149 0;
#X connect 155 4 3 0;
#X connect 155 5 150 0;
#X connect 155 5 3 0;
#X connect 155 6 151 0;
#X connect 155 6 3 0;
#X connect 155 7 152 0;
#X connect 155 7 3 0;
#X connect 155 8 3 0;
#X restore 127 56 pd getKey;
#X obj 390 801 tgl 15 0 empty empty empty 17 7 0 10 -262144 -1 -1 1
1;
#X obj 377 932 tabwrite~ oscil;
#N canvas 0 50 450 250 (subpatch) 0;
#X array oscil 100 float 1;
#A 0 0 0 0 0 0 0 0 0 0 0 0 0 0 0 0 0 0 0 0 0 0 0 0 0 0 0 0 0 0 0 0
0 0 0 0 0 0 0 0 0 0 0 0 0 0 0 0 0 0 0 0 0 0 0 0 0 0 0 0 0 0 0 0 0 0
0 0 0 0 0 0 0 0 0 0 0 0 0 0 0 0 0 0 0 0 0 0 0 0 0 0 0 0 0 0 0 0 0 0
0;
#X coords 0 1 99 -1 200 140 1 0 0;
#X restore -14 742 graph;
#X obj 400 874 metro 50;
#X obj 633 740 hsl 128 15 0 127 0 0 empty empty Cutoff/Center_Frequency
-2 -8 0 10 -228856 -1 -1 0 1;
#X obj 630 760 mtof;
#X obj 571 801 svf~, f 8;
#X obj 539 840 selector~ 4 1;
#X obj 728 783 hsl 128 15 0 1 0 0 empty empty Q/resonance -2 -8 0 10
-228856 -1 -1 0 1;
#X obj 520 719 vradio 15 1 1 4 empty empty empty 0 -8 0 10 -228856
-1 -1 3;
#X text 470 718 lowpass;
#X text 464 734 highpass;
#X text 464 749 bandpass;
#X text 482 764 notch;
#X obj 520 785 + 1;
#X obj 540 891 *~;
#X obj 331 398 pack f f;
#X obj 425 399 pack f f;
#X obj 536 402 pack f f;
#X obj 627 396 pack f f;
#X obj 725 398 pack f f;
#X obj 816 392 pack f f;
#X obj 919 392 pack f f;
#X obj 1012 389 pack f f;
#X obj 1100 389 pack f f;
#X obj 1209 396 pack f f;
#X obj 354 753 loadbang;
#X obj 1539 38 declare -lib iemlib;
#X obj 131 160 pack f f f;
#X obj 16 445 vsl 15 128 0 100 0 0 empty empty Attack 0 -9 0 10 -258113
-1 -1 3400 1;
#X obj 79 445 vsl 15 128 0 100 0 0 empty empty Decay 0 -9 0 10 -4034
-1 -1 2300 1;
#X obj 135 449 vsl 15 128 0 100 0 0 empty empty Sustain 0 -9 0 10 -4032
-1 -1 3000 1;
#X obj 200 449 vsl 15 128 0 100 0 0 empty empty Release 0 -9 0 10 -257985
-1 -1 3900 1;
#X obj 267 451 vsl 15 128 0 1 0 0 empty empty Peak_Level 0 -9 0 10
-203904 -1 -1 12700 1;
#X obj 126 130 poly 10 1;
#N canvas 2552 -8 1920 1037 OSC_and_Filter 1;
#X obj 297 144 inlet;
#X obj 3298 470 *~ 1;
#X obj 3279 516 outlet~;
#X obj 51 14 inlet;
#X obj 105 13 inlet;
#X obj 127 179 inlet;
#X obj 51 38 v x;
#X obj 22 39 s x;
#X obj 345 144 r x;
#X obj 152 375 inlet;
#X obj 165 501 inlet;
#X obj 127 128 s attack;
#X obj 444 145 r attack;
#X obj 515 144 r decay;
#X obj 578 144 r sustain;
#X obj 652 144 r release;
#X obj 149 296 s decay;
#X obj 155 418 s sustain;
#X obj 186 617 s release;
#X obj 109 44 * 0.01;
#X obj 122 95 *;
#X obj 241 10 loadbang;
#X msg 241 34 send max;
#X floatatom 279 62 5 0 0 0 - - -;
#X obj 136 68 r max;
#X obj 136 215 * 0.01;
#X obj 149 266 *;
#X obj 163 239 r max;
#X obj 173 532 * 0.01;
#X obj 186 583 *;
#X obj 200 556 r max;
#X obj 241 95 f 500;
#X obj 386 145 r peak;
#X obj 201 666 inlet;
#X obj 201 701 s peak;
#X obj 431 215 OSC, f 21;
#X obj 726 144 inlet;
#X obj 774 144 r x;
#X obj 873 145 r attack;
#X obj 944 144 r decay;
#X obj 1007 144 r sustain;
#X obj 1081 144 r release;
#X obj 815 145 r peak;
#X obj 860 215 OSC, f 21;
#X obj 1156 142 inlet;
#X obj 1204 142 r x;
#X obj 1303 143 r attack;
#X obj 1374 142 r decay;
#X obj 1437 142 r sustain;
#X obj 1511 142 r release;
#X obj 1245 143 r peak;
#X obj 1290 213 OSC, f 21;
#X obj 1588 143 inlet;
#X obj 1636 143 r x;
#X obj 1735 144 r attack;
#X obj 1806 143 r decay;
#X obj 1869 143 r sustain;
#X obj 1943 143 r release;
#X obj 1677 144 r peak;
#X obj 1722 214 OSC, f 21;
#X obj 2025 142 inlet;
#X obj 2073 142 r x;
#X obj 2172 143 r attack;
#X obj 2243 142 r decay;
#X obj 2306 142 r sustain;
#X obj 2380 142 r release;
#X obj 2114 143 r peak;
#X obj 2159 213 OSC, f 21;
#X obj 2471 143 inlet;
#X obj 2519 143 r x;
#X obj 2618 144 r attack;
#X obj 2689 143 r decay;
#X obj 2752 143 r sustain;
#X obj 2826 143 r release;
#X obj 2560 144 r peak;
#X obj 2605 214 OSC, f 21;
#X obj 2900 143 inlet;
#X obj 2948 143 r x;
#X obj 3047 144 r attack;
#X obj 3118 143 r decay;
#X obj 3181 143 r sustain;
#X obj 3255 143 r release;
#X obj 2989 144 r peak;
#X obj 3034 214 OSC, f 21;
#X obj 3330 141 inlet;
#X obj 3378 141 r x;
#X obj 3477 142 r attack;
#X obj 3548 141 r decay;
#X obj 3611 141 r sustain;
#X obj 3685 141 r release;
#X obj 3419 142 r peak;
#X obj 3464 212 OSC, f 21;
#X obj 3762 142 inlet;
#X obj 3810 142 r x;
#X obj 3909 143 r attack;
#X obj 3980 142 r decay;
#X obj 4043 142 r sustain;
#X obj 4117 142 r release;
#X obj 3851 143 r peak;
#X obj 3896 213 OSC, f 21;
#X obj 4203 141 inlet;
#X obj 4251 141 r x;
#X obj 4350 142 r attack;
#X obj 4421 141 r decay;
#X obj 4484 141 r sustain;
#X obj 4558 141 r release;
#X obj 4292 142 r peak;
#X obj 4337 212 OSC, f 21;
#X connect 0 0 35 0;
#X connect 1 0 2 0;
#X connect 3 0 6 0;
#X connect 3 0 7 0;
#X connect 4 0 19 0;
#X connect 5 0 25 0;
#X connect 8 0 35 1;
#X connect 9 0 17 0;
#X connect 10 0 28 0;
#X connect 12 0 35 3;
#X connect 13 0 35 4;
#X connect 14 0 35 5;
#X connect 15 0 35 6;
#X connect 19 0 20 0;
#X connect 20 0 11 0;
#X connect 21 0 22 0;
#X connect 22 0 31 0;
#X connect 23 0 31 1;
#X connect 24 0 20 1;
#X connect 25 0 26 0;
#X connect 26 0 16 0;
#X connect 27 0 26 1;
#X connect 28 0 29 0;
#X connect 29 0 18 0;
#X connect 30 0 29 1;
#X connect 32 0 35 2;
#X connect 33 0 34 0;
#X connect 35 0 1 0;
#X connect 36 0 43 0;
#X connect 37 0 43 1;
#X connect 38 0 43 3;
#X connect 39 0 43 4;
#X connect 40 0 43 5;
#X connect 41 0 43 6;
#X connect 42 0 43 2;
#X connect 43 0 1 0;
#X connect 44 0 51 0;
#X connect 45 0 51 1;
#X connect 46 0 51 3;
#X connect 47 0 51 4;
#X connect 48 0 51 5;
#X connect 49 0 51 6;
#X connect 50 0 51 2;
#X connect 51 0 1 0;
#X connect 52 0 59 0;
#X connect 53 0 59 1;
#X connect 54 0 59 3;
#X connect 55 0 59 4;
#X connect 56 0 59 5;
#X connect 57 0 59 6;
#X connect 58 0 59 2;
#X connect 59 0 1 0;
#X connect 60 0 67 0;
#X connect 61 0 67 1;
#X connect 62 0 67 3;
#X connect 63 0 67 4;
#X connect 64 0 67 5;
#X connect 65 0 67 6;
#X connect 66 0 67 2;
#X connect 67 0 1 0;
#X connect 68 0 75 0;
#X connect 69 0 75 1;
#X connect 70 0 75 3;
#X connect 71 0 75 4;
#X connect 72 0 75 5;
#X connect 73 0 75 6;
#X connect 74 0 75 2;
#X connect 75 0 1 0;
#X connect 76 0 83 0;
#X connect 77 0 83 1;
#X connect 78 0 83 3;
#X connect 79 0 83 4;
#X connect 80 0 83 5;
#X connect 81 0 83 6;
#X connect 82 0 83 2;
#X connect 83 0 1 0;
#X connect 84 0 91 0;
#X connect 85 0 91 1;
#X connect 86 0 91 3;
#X connect 87 0 91 4;
#X connect 88 0 91 5;
#X connect 89 0 91 6;
#X connect 90 0 91 2;
#X connect 91 0 1 0;
#X connect 92 0 99 0;
#X connect 93 0 99 1;
#X connect 94 0 99 3;
#X connect 95 0 99 4;
#X connect 96 0 99 5;
#X connect 97 0 99 6;
#X connect 98 0 99 2;
#X connect 99 0 1 0;
#X connect 100 0 107 0;
#X connect 101 0 107 1;
#X connect 102 0 107 3;
#X connect 103 0 107 4;
#X connect 104 0 107 5;
#X connect 105 0 107 6;
#X connect 106 0 107 2;
#X connect 107 0 1 0;
#X restore 510 641 pd OSC_and_Filter;
#X f 88;
#X obj 348 628 vradio 15 1 1 4 empty empty Oscillators 0 -8 0 10 -232576
-1 -1 1;
#X text 323 626 osc;
#X text 288 641 sawtooth;
#X text 288 657 triangle;
#X text 302 672 square;
#X obj 1540 68 declare -lib cyclone;
#X connect 0 0 1 0;
#X connect 0 1 2 0;
#X connect 1 0 33 0;
#X connect 2 0 60 1;
#X connect 3 0 4 0;
#X connect 3 1 5 0;
#X connect 4 0 34 0;
#X connect 5 0 61 1;
#X connect 6 0 7 0;
#X connect 6 1 8 0;
#X connect 7 0 35 0;
#X connect 8 0 62 1;
#X connect 9 0 10 0;
#X connect 9 1 11 0;
#X connect 10 0 36 0;
#X connect 11 0 63 1;
#X connect 12 0 59 1;
#X connect 14 0 15 0;
#X connect 14 1 16 0;
#X connect 15 0 37 0;
#X connect 16 0 64 1;
#X connect 17 0 18 0;
#X connect 17 1 19 0;
#X connect 18 0 38 0;
#X connect 19 0 65 1;
#X connect 20 0 21 0;
#X connect 20 1 22 0;
#X connect 21 0 39 0;
#X connect 22 0 66 1;
#X connect 23 0 24 0;
#X connect 23 1 25 0;
#X connect 24 0 40 0;
#X connect 25 0 67 1;
#X connect 26 0 27 0;
#X connect 26 1 28 0;
#X connect 27 0 41 0;
#X connect 28 0 68 1;
#X connect 29 0 30 0;
#X connect 29 1 31 0;
#X connect 30 0 42 0;
#X connect 31 0 69 1;
#X connect 32 0 0 0;
#X connect 32 1 3 0;
#X connect 32 2 6 0;
#X connect 32 3 9 0;
#X connect 32 4 14 0;
#X connect 32 5 17 0;
#X connect 32 6 20 0;
#X connect 32 7 23 0;
#X connect 32 8 26 0;
#X connect 32 9 29 0;
#X connect 33 0 60 0;
#X connect 34 0 61 0;
#X connect 35 0 62 0;
#X connect 36 0 63 0;
#X connect 37 0 64 0;
#X connect 38 0 65 0;
#X connect 39 0 66 0;
#X connect 40 0 67 0;
#X connect 41 0 68 0;
#X connect 42 0 69 0;
#X connect 43 0 78 0;
#X connect 44 0 47 0;
#X connect 47 0 45 0;
#X connect 48 0 49 0;
#X connect 49 0 50 1;
#X connect 50 0 51 1;
#X connect 50 1 51 2;
#X connect 50 2 51 3;
#X connect 50 3 51 4;
#X connect 51 0 59 0;
#X connect 51 0 45 0;
#X connect 52 0 50 2;
#X connect 53 0 58 0;
#X connect 58 0 51 0;
#X connect 59 0 13 0;
#X connect 59 0 13 1;
#X connect 60 0 79 6;
#X connect 61 0 79 7;
#X connect 62 0 79 8;
#X connect 63 0 79 9;
#X connect 64 0 79 10;
#X connect 65 0 79 11;
#X connect 66 0 79 12;
#X connect 67 0 79 13;
#X connect 68 0 79 14;
#X connect 69 0 79 15;
#X connect 70 0 44 0;
#X connect 72 0 32 0;
#X connect 73 0 79 1;
#X connect 74 0 79 2;
#X connect 75 0 79 3;
#X connect 76 0 79 4;
#X connect 77 0 79 5;
#X connect 78 0 72 0;
#X connect 78 1 72 1;
#X connect 78 2 72 2;
#X connect 79 0 50 0;
#X connect 80 0 79 0;
#X coords 0 0 2 2 0 0 0;
