#N canvas -8 -8 2560 1397 12;
#X obj 125 163 pack f f f;
#X obj 90 256 unpack f f;
#X floatatom 88 292 5 0 0 0 - - -;
#X obj 146 297 tgl 15 0 empty empty empty 17 7 0 10 -262144 -1 -1 0
1;
#X obj 195 257 unpack f f;
#X floatatom 193 293 5 0 0 0 - - -;
#X obj 260 302 tgl 15 0 empty empty empty 17 7 0 10 -262144 -1 -1 0
1;
#X obj 289 263 unpack f f;
#X floatatom 287 299 5 0 0 0 - - -;
#X obj 354 308 tgl 15 0 empty empty empty 17 7 0 10 -262144 -1 -1 0
1;
#X obj 383 266 unpack f f;
#X floatatom 387 301 5 0 0 0 - - -;
#X obj 446 303 tgl 15 0 empty empty empty 17 7 0 10 -262144 -1 -1 0
1;
#X obj 547 775 *~;
#X obj 718 758 vsl 15 128 0 1 0 0 empty empty empty 0 -9 0 10 -262144
-1 -1 3100 1;
#X obj 517 885 dac~;
#X obj 487 266 unpack f f;
#X floatatom 485 302 5 0 0 0 - - -;
#X obj 543 307 tgl 15 0 empty empty empty 17 7 0 10 -262144 -1 -1 0
1;
#X obj 592 267 unpack f f;
#X floatatom 590 303 5 0 0 0 - - -;
#X obj 657 312 tgl 15 0 empty empty empty 17 7 0 10 -262144 -1 -1 0
1;
#X obj 686 273 unpack f f;
#X floatatom 684 309 5 0 0 0 - - -;
#X obj 751 318 tgl 15 0 empty empty empty 17 7 0 10 -262144 -1 -1 0
1;
#X obj 780 276 unpack f f;
#X floatatom 784 311 5 0 0 0 - - -;
#X obj 843 313 tgl 15 0 empty empty empty 17 7 0 10 -262144 -1 -1 0
1;
#X obj 872 273 unpack f f;
#X floatatom 870 309 5 0 0 0 - - -;
#X obj 937 318 tgl 15 0 empty empty empty 17 7 0 10 -262144 -1 -1 0
1;
#X obj 966 276 unpack f f;
#X floatatom 970 311 5 0 0 0 - - -;
#X obj 1029 313 tgl 15 0 empty empty empty 17 7 0 10 -262144 -1 -1
0 1;
#X obj 144 200 route 1 2 3 4 5 6 7 8 9 10;
#X obj 72 324 KeyToNote;
#X obj 180 327 KeyToNote;
#X obj 290 330 KeyToNote;
#X obj 402 332 KeyToNote;
#X obj 490 332 KeyToNote;
#X obj 594 336 KeyToNote;
#X obj 687 338 KeyToNote;
#X obj 784 341 KeyToNote;
#X obj 868 343 KeyToNote;
#X obj 964 343 KeyToNote;
#X obj 126 130 poly 10 1;
#N canvas 2552 184 1920 1037 getKey 1;
#X obj 114 20 key;
#X obj 2033 -26 keyup;
#X msg 1550 372 \$1 127;
#X msg 1733 379 \$1 0;
#X obj 39 188 spigot;
#X obj 70 154 tgl 15 0 empty empty empty 17 7 0 10 -262144 -1 -1 1
1;
#X msg 68 214 0;
#X msg 2026 106 1;
#X msg 114 46 \$1 \$1;
#X msg 2033 -3 \$1 \$1;
#X msg 2063 106 1;
#X msg 2103 106 1;
#X msg 2140 105 1;
#X obj 94 186 spigot;
#X obj 125 152 tgl 15 0 empty empty empty 17 7 0 10 -262144 -1 -1 1
1;
#X msg 114 214 0;
#X obj 152 188 spigot;
#X obj 183 154 tgl 15 0 empty empty empty 17 7 0 10 -262144 -1 -1 1
1;
#X msg 172 216 0;
#X obj 207 188 spigot;
#X obj 238 154 tgl 15 0 empty empty empty 17 7 0 10 -262144 -1 -1 1
1;
#X msg 227 216 0;
#X obj 112 71 route 113 119 101 114 116 121 117 105 111 112;
#X obj 264 190 spigot;
#X obj 295 156 tgl 15 0 empty empty empty 17 7 0 10 -262144 -1 -1 1
1;
#X msg 293 216 0;
#X obj 319 188 spigot;
#X obj 350 154 tgl 15 0 empty empty empty 17 7 0 10 -262144 -1 -1 1
1;
#X msg 339 216 0;
#X obj 377 190 spigot;
#X obj 408 156 tgl 15 0 empty empty empty 17 7 0 10 -262144 -1 -1 1
1;
#X msg 397 218 0;
#X obj 432 190 spigot;
#X obj 463 156 tgl 15 0 empty empty empty 17 7 0 10 -262144 -1 -1 1
1;
#X msg 452 218 0;
#X obj 487 188 spigot;
#X obj 518 154 tgl 15 0 empty empty empty 17 7 0 10 -262144 -1 -1 1
1;
#X msg 507 216 0;
#X obj 542 188 spigot;
#X obj 573 154 tgl 15 0 empty empty empty 17 7 0 10 -262144 -1 -1 1
1;
#X msg 562 216 0;
#X obj 2036 26 route 113 119 101 114 116 121 117 105 111 112;
#X msg 2183 103 1;
#X msg 2220 103 1;
#X msg 2260 103 1;
#X msg 2297 102 1;
#X msg 2333 105 1;
#X msg 2370 104 1;
#X obj 600 187 spigot;
#X obj 631 153 tgl 15 0 empty empty empty 17 7 0 10 -262144 -1 -1 1
1;
#X msg 629 213 0;
#X obj 655 185 spigot;
#X obj 686 151 tgl 15 0 empty empty empty 17 7 0 10 -262144 -1 -1 1
1;
#X msg 675 213 0;
#X obj 713 187 spigot;
#X obj 744 153 tgl 15 0 empty empty empty 17 7 0 10 -262144 -1 -1 1
1;
#X msg 733 215 0;
#X obj 768 187 spigot;
#X obj 799 153 tgl 15 0 empty empty empty 17 7 0 10 -262144 -1 -1 1
1;
#X msg 788 215 0;
#X obj 825 189 spigot;
#X obj 856 155 tgl 15 0 empty empty empty 17 7 0 10 -262144 -1 -1 1
1;
#X msg 854 215 0;
#X obj 880 187 spigot;
#X obj 911 153 tgl 15 0 empty empty empty 17 7 0 10 -262144 -1 -1 1
1;
#X msg 900 215 0;
#X obj 938 189 spigot;
#X obj 969 155 tgl 15 0 empty empty empty 17 7 0 10 -262144 -1 -1 1
1;
#X msg 958 217 0;
#X msg 2408 101 1;
#X msg 2445 101 1;
#X msg 2485 101 1;
#X msg 2522 100 1;
#X msg 2565 98 1;
#X msg 2602 98 1;
#X msg 2642 98 1;
#X obj 1594 419 outlet;
#X obj 472 100 route 50 51 53 54 55 57 48;
#X obj 2416 54 route 50 51 53 54 55 57 48;
#X obj 229 32 print;
#X obj 1230 104 loadbang;
#X obj 699 58 route 122 120 99 118 98 110 109 44 46 47;
#X obj 997 189 spigot;
#X obj 1028 155 tgl 15 0 empty empty empty 17 7 0 10 -262144 -1 -1
1 1;
#X msg 1026 215 0;
#X obj 1052 187 spigot;
#X obj 1083 153 tgl 15 0 empty empty empty 17 7 0 10 -262144 -1 -1
1 1;
#X msg 1072 215 0;
#X obj 1110 189 spigot;
#X obj 1141 155 tgl 15 0 empty empty empty 17 7 0 10 -262144 -1 -1
1 1;
#X msg 1130 217 0;
#X obj 1165 189 spigot;
#X obj 1196 155 tgl 15 0 empty empty empty 17 7 0 10 -262144 -1 -1
1 1;
#X msg 1185 217 0;
#X obj 1222 191 spigot;
#X obj 1253 157 tgl 15 0 empty empty empty 17 7 0 10 -262144 -1 -1
1 1;
#X msg 1251 217 0;
#X obj 1277 189 spigot;
#X obj 1308 155 tgl 15 0 empty empty empty 17 7 0 10 -262144 -1 -1
1 1;
#X msg 1297 217 0;
#X obj 1335 191 spigot;
#X obj 1366 157 tgl 15 0 empty empty empty 17 7 0 10 -262144 -1 -1
1 1;
#X msg 1355 219 0;
#X obj 1390 191 spigot;
#X obj 1421 157 tgl 15 0 empty empty empty 17 7 0 10 -262144 -1 -1
1 1;
#X msg 1410 219 0;
#X obj 1445 189 spigot;
#X obj 1476 155 tgl 15 0 empty empty empty 17 7 0 10 -262144 -1 -1
1 1;
#X msg 1465 217 0;
#X obj 1500 189 spigot;
#X obj 1531 155 tgl 15 0 empty empty empty 17 7 0 10 -262144 -1 -1
1 1;
#X msg 1520 217 0;
#X obj 1558 189 spigot;
#X obj 1589 154 tgl 15 0 empty empty empty 17 7 0 10 -262144 -1 -1
1 1;
#X msg 1587 214 0;
#X obj 1613 186 spigot;
#X obj 1644 152 tgl 15 0 empty empty empty 17 7 0 10 -262144 -1 -1
1 1;
#X msg 1633 214 0;
#X obj 1671 188 spigot;
#X obj 1702 154 tgl 15 0 empty empty empty 17 7 0 10 -262144 -1 -1
1 1;
#X msg 1691 216 0;
#X obj 1726 188 spigot;
#X obj 1757 154 tgl 15 0 empty empty empty 17 7 0 10 -262144 -1 -1
1 1;
#X msg 1746 216 0;
#X obj 1783 190 spigot;
#X obj 1814 156 tgl 15 0 empty empty empty 17 7 0 10 -262144 -1 -1
1 1;
#X msg 1812 216 0;
#X obj 1838 188 spigot;
#X obj 1869 154 tgl 15 0 empty empty empty 17 7 0 10 -262144 -1 -1
1 1;
#X msg 1858 216 0;
#X obj 1896 190 spigot;
#X obj 1927 156 tgl 15 0 empty empty empty 17 7 0 10 -262144 -1 -1
1 1;
#X msg 1916 218 0;
#X obj 1951 190 spigot;
#X obj 1982 156 tgl 15 0 empty empty empty 17 7 0 10 -262144 -1 -1
1 1;
#X msg 1971 218 0;
#X obj 2682 29 route 122 120 99 118 98 110 109 44 46 47;
#X msg 2678 97 1;
#X msg 2716 99 1;
#X msg 2755 97 1;
#X msg 2835 95 1;
#X msg 2878 93 1;
#X msg 2915 93 1;
#X msg 2955 93 1;
#X msg 2992 92 1;
#X msg 3028 95 1;
#X msg 3069 92 1;
#X msg 3103 91 1;
#X msg 3140 91 1;
#X msg 3180 91 1;
#X msg 3217 90 1;
#X msg 3260 88 1;
#X msg 3295 90 1;
#X msg 3335 90 1;
#X msg 2797 96 1;
#X obj 1032 67 route 115 100 102 104 106 108 59 39;
#X obj 2994 52 route 115 100 102 104 106 108 59 39;
#X connect 0 0 8 0;
#X connect 0 0 79 0;
#X connect 1 0 9 0;
#X connect 2 0 76 0;
#X connect 3 0 76 0;
#X connect 4 0 6 0;
#X connect 4 0 2 0;
#X connect 5 0 4 1;
#X connect 6 0 5 0;
#X connect 7 0 5 0;
#X connect 8 0 22 0;
#X connect 9 0 41 0;
#X connect 10 0 14 0;
#X connect 11 0 17 0;
#X connect 12 0 20 0;
#X connect 13 0 15 0;
#X connect 13 0 2 0;
#X connect 14 0 13 1;
#X connect 15 0 14 0;
#X connect 16 0 18 0;
#X connect 16 0 2 0;
#X connect 17 0 16 1;
#X connect 18 0 17 0;
#X connect 19 0 21 0;
#X connect 19 0 2 0;
#X connect 20 0 19 1;
#X connect 21 0 20 0;
#X connect 22 0 4 0;
#X connect 22 1 13 0;
#X connect 22 2 16 0;
#X connect 22 3 19 0;
#X connect 22 4 23 0;
#X connect 22 5 26 0;
#X connect 22 6 29 0;
#X connect 22 7 32 0;
#X connect 22 8 35 0;
#X connect 22 9 38 0;
#X connect 22 10 77 0;
#X connect 23 0 25 0;
#X connect 23 0 2 0;
#X connect 24 0 23 1;
#X connect 25 0 24 0;
#X connect 26 0 28 0;
#X connect 26 0 2 0;
#X connect 27 0 26 1;
#X connect 28 0 27 0;
#X connect 29 0 31 0;
#X connect 29 0 2 0;
#X connect 30 0 29 1;
#X connect 31 0 30 0;
#X connect 32 0 34 0;
#X connect 32 0 2 0;
#X connect 33 0 32 1;
#X connect 34 0 33 0;
#X connect 35 0 37 0;
#X connect 35 0 2 0;
#X connect 36 0 35 1;
#X connect 37 0 36 0;
#X connect 38 0 40 0;
#X connect 38 0 2 0;
#X connect 39 0 38 1;
#X connect 40 0 39 0;
#X connect 41 0 7 0;
#X connect 41 0 3 0;
#X connect 41 1 10 0;
#X connect 41 1 3 0;
#X connect 41 2 11 0;
#X connect 41 2 3 0;
#X connect 41 3 12 0;
#X connect 41 3 3 0;
#X connect 41 4 42 0;
#X connect 41 4 3 0;
#X connect 41 5 43 0;
#X connect 41 5 3 0;
#X connect 41 6 44 0;
#X connect 41 6 3 0;
#X connect 41 7 45 0;
#X connect 41 7 3 0;
#X connect 41 8 46 0;
#X connect 41 8 3 0;
#X connect 41 9 47 0;
#X connect 41 9 3 0;
#X connect 41 10 78 0;
#X connect 42 0 24 0;
#X connect 43 0 27 0;
#X connect 44 0 30 0;
#X connect 45 0 33 0;
#X connect 46 0 36 0;
#X connect 47 0 39 0;
#X connect 48 0 50 0;
#X connect 48 0 2 0;
#X connect 49 0 48 1;
#X connect 50 0 49 0;
#X connect 51 0 53 0;
#X connect 51 0 2 0;
#X connect 52 0 51 1;
#X connect 53 0 52 0;
#X connect 54 0 56 0;
#X connect 54 0 2 0;
#X connect 55 0 54 1;
#X connect 56 0 55 0;
#X connect 57 0 59 0;
#X connect 57 0 2 0;
#X connect 58 0 57 1;
#X connect 59 0 58 0;
#X connect 60 0 62 0;
#X connect 60 0 2 0;
#X connect 61 0 60 1;
#X connect 62 0 61 0;
#X connect 63 0 65 0;
#X connect 63 0 2 0;
#X connect 64 0 63 1;
#X connect 65 0 64 0;
#X connect 66 0 68 0;
#X connect 66 0 2 0;
#X connect 67 0 66 1;
#X connect 68 0 67 0;
#X connect 69 0 49 0;
#X connect 70 0 52 0;
#X connect 71 0 55 0;
#X connect 72 0 58 0;
#X connect 73 0 61 0;
#X connect 74 0 64 0;
#X connect 75 0 67 0;
#X connect 77 0 48 0;
#X connect 77 1 51 0;
#X connect 77 2 54 0;
#X connect 77 3 57 0;
#X connect 77 4 60 0;
#X connect 77 5 63 0;
#X connect 77 6 66 0;
#X connect 77 7 81 0;
#X connect 78 0 69 0;
#X connect 78 0 3 0;
#X connect 78 1 70 0;
#X connect 78 1 3 0;
#X connect 78 2 71 0;
#X connect 78 2 3 0;
#X connect 78 3 72 0;
#X connect 78 3 3 0;
#X connect 78 4 73 0;
#X connect 78 4 3 0;
#X connect 78 5 74 0;
#X connect 78 5 3 0;
#X connect 78 6 75 0;
#X connect 78 6 3 0;
#X connect 78 7 136 0;
#X connect 80 0 5 0;
#X connect 80 0 14 0;
#X connect 80 0 17 0;
#X connect 80 0 20 0;
#X connect 80 0 24 0;
#X connect 80 0 27 0;
#X connect 80 0 30 0;
#X connect 80 0 33 0;
#X connect 80 0 36 0;
#X connect 80 0 39 0;
#X connect 80 0 49 0;
#X connect 80 0 52 0;
#X connect 80 0 55 0;
#X connect 80 0 58 0;
#X connect 80 0 61 0;
#X connect 80 0 64 0;
#X connect 80 0 67 0;
#X connect 80 0 86 0;
#X connect 80 0 89 0;
#X connect 80 0 92 0;
#X connect 80 0 98 0;
#X connect 80 0 95 0;
#X connect 80 0 101 0;
#X connect 80 0 104 0;
#X connect 80 0 107 0;
#X connect 80 0 110 0;
#X connect 80 0 113 0;
#X connect 80 0 116 0;
#X connect 80 0 119 0;
#X connect 80 0 122 0;
#X connect 80 0 125 0;
#X connect 80 0 128 0;
#X connect 80 0 131 0;
#X connect 80 0 134 0;
#X connect 81 0 82 0;
#X connect 81 1 85 0;
#X connect 81 2 88 0;
#X connect 81 3 91 0;
#X connect 81 4 94 0;
#X connect 81 5 97 0;
#X connect 81 6 100 0;
#X connect 81 7 103 0;
#X connect 81 8 106 0;
#X connect 81 9 109 0;
#X connect 81 10 155 0;
#X connect 82 0 84 0;
#X connect 82 0 2 0;
#X connect 83 0 82 1;
#X connect 84 0 83 0;
#X connect 85 0 87 0;
#X connect 85 0 2 0;
#X connect 86 0 85 1;
#X connect 87 0 86 0;
#X connect 88 0 90 0;
#X connect 88 0 2 0;
#X connect 89 0 88 1;
#X connect 90 0 89 0;
#X connect 91 0 93 0;
#X connect 91 0 2 0;
#X connect 92 0 91 1;
#X connect 93 0 92 0;
#X connect 94 0 96 0;
#X connect 94 0 2 0;
#X connect 95 0 94 1;
#X connect 96 0 95 0;
#X connect 97 0 99 0;
#X connect 97 0 2 0;
#X connect 98 0 97 1;
#X connect 99 0 98 0;
#X connect 100 0 102 0;
#X connect 100 0 2 0;
#X connect 101 0 100 1;
#X connect 102 0 101 0;
#X connect 103 0 105 0;
#X connect 103 0 2 0;
#X connect 104 0 103 1;
#X connect 105 0 104 0;
#X connect 106 0 108 0;
#X connect 106 0 2 0;
#X connect 107 0 106 1;
#X connect 108 0 107 0;
#X connect 109 0 111 0;
#X connect 109 0 2 0;
#X connect 110 0 109 1;
#X connect 111 0 110 0;
#X connect 112 0 114 0;
#X connect 112 0 2 0;
#X connect 113 0 112 1;
#X connect 114 0 113 0;
#X connect 115 0 117 0;
#X connect 115 0 2 0;
#X connect 116 0 115 1;
#X connect 117 0 116 0;
#X connect 118 0 120 0;
#X connect 118 0 2 0;
#X connect 119 0 118 1;
#X connect 120 0 119 0;
#X connect 121 0 123 0;
#X connect 121 0 2 0;
#X connect 122 0 121 1;
#X connect 123 0 122 0;
#X connect 124 0 126 0;
#X connect 124 0 2 0;
#X connect 125 0 124 1;
#X connect 126 0 125 0;
#X connect 127 0 129 0;
#X connect 127 0 2 0;
#X connect 128 0 127 1;
#X connect 129 0 128 0;
#X connect 130 0 132 0;
#X connect 130 0 2 0;
#X connect 131 0 130 1;
#X connect 132 0 131 0;
#X connect 133 0 135 0;
#X connect 133 0 2 0;
#X connect 134 0 133 1;
#X connect 135 0 134 0;
#X connect 136 0 137 0;
#X connect 136 0 3 0;
#X connect 136 1 138 0;
#X connect 136 1 3 0;
#X connect 136 2 139 0;
#X connect 136 2 3 0;
#X connect 136 3 154 0;
#X connect 136 3 3 0;
#X connect 136 4 140 0;
#X connect 136 4 3 0;
#X connect 136 5 141 0;
#X connect 136 5 3 0;
#X connect 136 6 142 0;
#X connect 136 6 3 0;
#X connect 136 7 143 0;
#X connect 136 7 3 0;
#X connect 136 8 144 0;
#X connect 136 8 3 0;
#X connect 136 9 145 0;
#X connect 136 9 3 0;
#X connect 136 10 156 0;
#X connect 137 0 83 0;
#X connect 138 0 86 0;
#X connect 139 0 89 0;
#X connect 140 0 95 0;
#X connect 141 0 98 0;
#X connect 142 0 101 0;
#X connect 143 0 104 0;
#X connect 144 0 107 0;
#X connect 145 0 110 0;
#X connect 146 0 113 0;
#X connect 147 0 116 0;
#X connect 148 0 119 0;
#X connect 149 0 122 0;
#X connect 150 0 125 0;
#X connect 151 0 128 0;
#X connect 152 0 131 0;
#X connect 153 0 134 0;
#X connect 154 0 92 0;
#X connect 155 0 112 0;
#X connect 155 1 115 0;
#X connect 155 2 118 0;
#X connect 155 3 121 0;
#X connect 155 4 124 0;
#X connect 155 5 127 0;
#X connect 155 6 130 0;
#X connect 155 7 133 0;
#X connect 156 0 146 0;
#X connect 156 0 3 0;
#X connect 156 1 147 0;
#X connect 156 1 3 0;
#X connect 156 2 148 0;
#X connect 156 2 3 0;
#X connect 156 3 149 0;
#X connect 156 3 3 0;
#X connect 156 4 150 0;
#X connect 156 4 3 0;
#X connect 156 5 151 0;
#X connect 156 5 3 0;
#X connect 156 6 152 0;
#X connect 156 6 3 0;
#X connect 156 7 153 0;
#X connect 156 7 3 0;
#X connect 156 8 3 0;
#X restore 127 56 pd getKey;
#X obj 46 486 osc~;
#X obj 76 546 *~;
#X obj 101 512 line~;
#X obj 103 477 pack 0 50;
#X obj 102 446 / 127;
#X obj 192 485 osc~;
#X obj 203 546 *~;
#X obj 228 512 line~;
#X obj 230 477 pack 0 50;
#X obj 229 448 / 127;
#X obj 310 500 osc~;
#X obj 327 560 *~;
#X obj 352 526 line~;
#X obj 354 491 pack 0 50;
#X obj 346 462 / 127;
#X obj 442 513 osc~;
#X obj 460 573 *~;
#X obj 485 539 line~;
#X obj 487 504 pack 0 50;
#X obj 474 475 / 127;
#X obj 587 509 osc~;
#X obj 599 572 *~;
#X obj 624 538 line~;
#X obj 626 503 pack 0 50;
#X obj 620 479 / 127;
#X obj 728 512 osc~;
#X obj 743 576 *~;
#X obj 768 542 line~;
#X obj 770 507 pack 0 50;
#X obj 763 480 / 127;
#X obj 871 519 osc~;
#X obj 881 579 *~;
#X obj 906 545 line~;
#X obj 908 510 pack 0 50;
#X obj 898 482 / 127;
#X obj 1023 514 osc~;
#X obj 1036 577 *~;
#X obj 1061 543 line~;
#X obj 1063 508 pack 0 50;
#X obj 1057 482 / 127;
#X obj 1177 509 osc~;
#X obj 1207 569 *~;
#X obj 1232 535 line~;
#X obj 1234 500 pack 0 50;
#X obj 1206 483 / 127;
#X obj 1342 502 osc~;
#X obj 1352 564 *~;
#X obj 1377 530 line~;
#X obj 1379 501 pack 0 50;
#X obj 1362 474 / 127;
#X obj 364 765 tgl 15 0 empty empty empty 17 7 0 10 -262144 -1 -1 1
1;
#X obj 356 828 tabwrite~ oscil;
#N canvas 0 50 450 250 (subpatch) 0;
#X array oscil 100 float 3;
#A 0 0 0 0 0 0 0 0 0 0 0 0 0 0 0 0 0 0 0 0 0 0 0 0 0 0 0 0 0 0 0 0
0 0 0 0 0 0 0 0 0 0 0 0 0 0 0 0 0 0 0 0 0 0 0 0 0 0 0 0 0 0 0 0 0 0
0 0 0 0 0 0 0 0 0 0 0 0 0 0 0 0 0 0 0 0 0 0 0 0 0 0 0 0 0 0 0 0 0 0
0;
#X coords 0 1 100 -1 200 140 1;
#X restore 101 834 graph;
#X msg 364 785;
#X msg 364 809 @;
#X obj 368 796 metro 50;
#X connect 0 0 34 0;
#X connect 1 0 2 0;
#X connect 1 1 3 0;
#X connect 2 0 35 0;
#X connect 3 0 51 0;
#X connect 4 0 5 0;
#X connect 4 1 6 0;
#X connect 5 0 36 0;
#X connect 6 0 56 0;
#X connect 7 0 8 0;
#X connect 7 1 9 0;
#X connect 8 0 37 0;
#X connect 9 0 61 0;
#X connect 10 0 11 0;
#X connect 10 1 12 0;
#X connect 11 0 38 0;
#X connect 12 0 66 0;
#X connect 13 0 15 0;
#X connect 13 0 15 1;
#X connect 13 0 98 0;
#X connect 14 0 13 1;
#X connect 16 0 17 0;
#X connect 16 1 18 0;
#X connect 17 0 39 0;
#X connect 18 0 71 0;
#X connect 19 0 20 0;
#X connect 19 1 21 0;
#X connect 20 0 40 0;
#X connect 21 0 76 0;
#X connect 22 0 23 0;
#X connect 22 1 24 0;
#X connect 23 0 41 0;
#X connect 24 0 81 0;
#X connect 25 0 26 0;
#X connect 25 1 27 0;
#X connect 26 0 42 0;
#X connect 27 0 86 0;
#X connect 28 0 29 0;
#X connect 28 1 30 0;
#X connect 29 0 43 0;
#X connect 30 0 91 0;
#X connect 31 0 32 0;
#X connect 31 1 33 0;
#X connect 32 0 44 0;
#X connect 33 0 96 0;
#X connect 34 0 1 0;
#X connect 34 1 4 0;
#X connect 34 2 7 0;
#X connect 34 3 10 0;
#X connect 34 4 16 0;
#X connect 34 5 19 0;
#X connect 34 6 22 0;
#X connect 34 7 25 0;
#X connect 34 8 28 0;
#X connect 34 9 31 0;
#X connect 35 0 47 0;
#X connect 36 0 52 0;
#X connect 37 0 57 0;
#X connect 38 0 62 0;
#X connect 39 0 67 0;
#X connect 40 0 72 0;
#X connect 41 0 77 0;
#X connect 42 0 82 0;
#X connect 43 0 87 0;
#X connect 44 0 92 0;
#X connect 45 0 0 0;
#X connect 45 1 0 1;
#X connect 45 2 0 2;
#X connect 46 0 45 0;
#X connect 47 0 48 0;
#X connect 48 0 13 0;
#X connect 49 0 48 1;
#X connect 50 0 49 0;
#X connect 51 0 50 0;
#X connect 52 0 53 0;
#X connect 53 0 13 0;
#X connect 54 0 53 1;
#X connect 55 0 54 0;
#X connect 56 0 55 0;
#X connect 57 0 58 0;
#X connect 58 0 13 0;
#X connect 59 0 58 1;
#X connect 60 0 59 0;
#X connect 61 0 60 0;
#X connect 62 0 63 0;
#X connect 63 0 13 0;
#X connect 64 0 63 1;
#X connect 65 0 64 0;
#X connect 66 0 65 0;
#X connect 67 0 68 0;
#X connect 68 0 13 0;
#X connect 69 0 68 1;
#X connect 70 0 69 0;
#X connect 71 0 70 0;
#X connect 72 0 73 0;
#X connect 73 0 13 0;
#X connect 74 0 73 1;
#X connect 75 0 74 0;
#X connect 76 0 75 0;
#X connect 77 0 78 0;
#X connect 78 0 13 0;
#X connect 79 0 78 1;
#X connect 80 0 79 0;
#X connect 81 0 80 0;
#X connect 82 0 83 0;
#X connect 83 0 13 0;
#X connect 84 0 83 1;
#X connect 85 0 84 0;
#X connect 86 0 85 0;
#X connect 87 0 88 0;
#X connect 88 0 13 0;
#X connect 89 0 88 1;
#X connect 90 0 89 0;
#X connect 91 0 90 0;
#X connect 92 0 93 0;
#X connect 93 0 13 0;
#X connect 94 0 93 1;
#X connect 95 0 94 0;
#X connect 96 0 95 0;
#X connect 97 0 100 0;
#X connect 97 0 102 0;
#X connect 100 0 101 0;
#X connect 102 0 98 0;
#X coords 0 0 2 2 0 0 0;
