#N canvas -8 -8 2560 1397 12;
#X obj 1012 32 inlet;
#X msg 1427 292 69;
#X msg 1595 311 67;
#X msg 1768 323 65;
#X floatatom 1148 496 5 0 0 0 - - -;
#X obj 1148 604 mtof;
#X msg 1854 327 64;
#X msg 2041 324 62;
#X msg 2204 333 60;
#X msg 1313 289 71;
#X msg 1252 275 72;
#X msg 1131 268 74;
#X msg 1026 255 76;
#X obj 1021 226 sel 0;
#X obj 1137 225 sel 0;
#X obj 1256 239 sel 0;
#X obj 1328 241 sel 0;
#X obj 1447 248 sel 0;
#X obj 1613 263 sel 0;
#X obj 1784 280 sel 0;
#X obj 1868 278 sel 0;
#X obj 2044 287 sel 0;
#X obj 2206 286 sel 0;
#X obj 2128 286 sel 0;
#X msg 2126 332 61;
#X obj 1948 284 sel 0;
#X msg 1946 331 63;
#X obj 1692 269 sel 0;
#X msg 1676 312 66;
#X obj 1524 254 sel 0;
#X msg 1508 297 68;
#X obj 1387 246 sel 0;
#X msg 1367 290 70;
#X obj 1197 239 sel 0;
#X msg 1192 270 73;
#X obj 1083 226 sel 0;
#X msg 1079 265 75;
#X obj 1148 643 outlet;
#X obj 974 223 sel 0;
#X msg 979 252 77;
#X obj 902 217 sel 0;
#X msg 907 246 78;
#X obj 839 217 sel 0;
#X obj 767 211 sel 0;
#X msg 844 246 79;
#X msg 772 240 80;
#X obj 708 210 sel 0;
#X obj 661 203 sel 0;
#X msg 713 239 81;
#X msg 666 232 82;
#X obj 611 197 sel 0;
#X obj 554 200 sel 0;
#X obj 508 199 sel 0;
#X obj 462 195 sel 0;
#X msg 616 226 83;
#X msg 559 229 84;
#X msg 513 228 85;
#X msg 467 223 86;
#X obj 410 192 sel 0;
#X obj 364 190 sel 0;
#X obj 312 190 sel 0;
#X obj 258 188 sel 0;
#X obj 204 188 sel 0;
#X obj 151 187 sel 0;
#X msg 415 220 87;
#X msg 369 218 88;
#X msg 317 218 89;
#X msg 263 216 90;
#X msg 209 216 91;
#X msg 156 215 92;
#X obj 100 186 sel 0;
#X obj 56 186 sel 0;
#X msg 61 214 94;
#X msg 105 214 93;
#X obj 545 119 route 39 47 59 46 108 44 109 106 110 104 98 118 102
99 100 120 115 122 112 48 111 57 105 117 55 121 54 116 53 114 101 51
119 50 113, f 131;
#X msg 977 69 \$1 \$1;
#X obj 1843 1022 * 12;
#X obj 1789 828 route + -;
#X obj 1798 733 spigot;
#X obj 1829 699 tgl 15 0 empty empty empty 17 7 0 10 -262144 -1 -1
1 1;
#X msg 1827 759 0;
#X obj 1742 546 key;
#X obj 1754 577 route 45 61;
#X obj 1854 732 spigot;
#X obj 1885 698 tgl 15 0 empty empty empty 17 7 0 10 -262144 -1 -1
1 1;
#X msg 1883 758 0;
#X obj 1876 547 keyup;
#X obj 1875 589 route 45 61;
#X msg 1883 633 1;
#X msg 1926 634 1;
#X msg 1751 787 -;
#X msg 1876 786 +;
#X obj 1148 555 +;
#X obj 1194 530 r y;
#X obj 1843 1052 s y;
#X obj 1801 974 + 1;
#X obj 1801 933 f 0;
#X obj 1765 1080 print;
#X obj 1885 932 f 0;
#X obj 1886 976 - 1;
#X obj 2003 806 loadbang;
#X floatatom 2017 849 5 0 0 0 - - -;
#X obj 1223 575 bang;
#X connect 0 0 75 0;
#X connect 1 0 4 0;
#X connect 2 0 4 0;
#X connect 3 0 4 0;
#X connect 4 0 92 0;
#X connect 5 0 37 0;
#X connect 6 0 4 0;
#X connect 7 0 4 0;
#X connect 8 0 4 0;
#X connect 9 0 4 0;
#X connect 10 0 4 0;
#X connect 11 0 4 0;
#X connect 12 0 4 0;
#X connect 13 1 12 0;
#X connect 14 1 11 0;
#X connect 15 1 10 0;
#X connect 16 1 9 0;
#X connect 17 1 1 0;
#X connect 18 1 2 0;
#X connect 19 1 3 0;
#X connect 20 1 6 0;
#X connect 21 1 7 0;
#X connect 22 1 8 0;
#X connect 23 1 24 0;
#X connect 24 0 4 0;
#X connect 25 1 26 0;
#X connect 26 0 4 0;
#X connect 27 1 28 0;
#X connect 28 0 4 0;
#X connect 29 1 30 0;
#X connect 30 0 4 0;
#X connect 31 1 32 0;
#X connect 32 0 4 0;
#X connect 33 1 34 0;
#X connect 34 0 4 0;
#X connect 35 1 36 0;
#X connect 36 0 4 0;
#X connect 38 1 39 0;
#X connect 39 0 4 0;
#X connect 40 1 41 0;
#X connect 41 0 4 0;
#X connect 42 1 44 0;
#X connect 43 1 45 0;
#X connect 44 0 4 0;
#X connect 45 0 4 0;
#X connect 46 1 48 0;
#X connect 47 1 49 0;
#X connect 48 0 4 0;
#X connect 49 0 4 0;
#X connect 50 1 54 0;
#X connect 51 1 55 0;
#X connect 52 1 56 0;
#X connect 53 1 57 0;
#X connect 54 0 4 0;
#X connect 55 0 4 0;
#X connect 56 0 4 0;
#X connect 57 0 4 0;
#X connect 58 1 64 0;
#X connect 59 1 65 0;
#X connect 60 1 66 0;
#X connect 61 1 67 0;
#X connect 62 1 68 0;
#X connect 63 1 69 0;
#X connect 64 0 4 0;
#X connect 65 0 4 0;
#X connect 66 0 4 0;
#X connect 67 0 4 0;
#X connect 68 0 4 0;
#X connect 69 0 4 0;
#X connect 70 1 73 0;
#X connect 71 1 72 0;
#X connect 72 0 4 0;
#X connect 73 0 4 0;
#X connect 74 0 71 0;
#X connect 74 1 70 0;
#X connect 74 2 63 0;
#X connect 74 3 62 0;
#X connect 74 4 61 0;
#X connect 74 5 60 0;
#X connect 74 6 59 0;
#X connect 74 7 58 0;
#X connect 74 8 53 0;
#X connect 74 9 52 0;
#X connect 74 10 51 0;
#X connect 74 11 50 0;
#X connect 74 12 47 0;
#X connect 74 13 46 0;
#X connect 74 14 43 0;
#X connect 74 15 42 0;
#X connect 74 16 40 0;
#X connect 74 17 38 0;
#X connect 74 18 13 0;
#X connect 74 19 35 0;
#X connect 74 20 14 0;
#X connect 74 21 33 0;
#X connect 74 22 15 0;
#X connect 74 23 16 0;
#X connect 74 24 31 0;
#X connect 74 25 17 0;
#X connect 74 26 29 0;
#X connect 74 27 18 0;
#X connect 74 28 27 0;
#X connect 74 29 19 0;
#X connect 74 30 20 0;
#X connect 74 31 25 0;
#X connect 74 32 21 0;
#X connect 74 33 23 0;
#X connect 74 34 22 0;
#X connect 75 0 74 0;
#X connect 76 0 94 0;
#X connect 76 0 97 0;
#X connect 77 0 96 0;
#X connect 77 1 98 0;
#X connect 78 0 80 0;
#X connect 78 0 90 0;
#X connect 79 0 78 1;
#X connect 80 0 79 0;
#X connect 81 0 82 0;
#X connect 82 0 78 0;
#X connect 82 1 83 0;
#X connect 83 0 85 0;
#X connect 83 0 91 0;
#X connect 84 0 83 1;
#X connect 85 0 84 0;
#X connect 86 0 87 0;
#X connect 87 0 88 0;
#X connect 87 1 89 0;
#X connect 88 0 79 0;
#X connect 89 0 84 0;
#X connect 90 0 77 0;
#X connect 91 0 77 0;
#X connect 92 0 5 0;
#X connect 93 0 92 1;
#X connect 93 0 102 0;
#X connect 95 0 76 0;
#X connect 95 0 96 1;
#X connect 95 0 98 1;
#X connect 96 0 95 0;
#X connect 98 0 99 0;
#X connect 99 0 98 1;
#X connect 99 0 76 0;
#X connect 99 0 96 1;
#X connect 100 0 101 0;
#X connect 101 0 96 1;
#X connect 101 0 98 1;
#X connect 102 0 92 0;
