#N canvas 597 263 1713 839 12;
#X obj 394 100 inlet;
#X obj 418 158 unpack f f;
#X obj 546 447 *~;
#X obj 636 267 / 127;
#X floatatom 514 202 5 0 0 0 - - -;
#X obj 331 322 osc~;
#X obj 371 319 phasor~;
#X obj 435 350 triangle~;
#X obj 436 319 phasor~;
#X obj 520 318 phasor~;
#X obj 519 353 expr~ $v1 > 0.5;
#X obj 505 237 + 1;
#X obj 636 299 tgl 15 0 empty empty empty 17 7 0 10 -262144 -1 -1 0
1;
#X obj 793 332 f \$1;
#X obj 866 332 f \$2;
#X obj 946 339 f \$3;
#X obj 1010 340 f \$4;
#X obj 634 384 ADSR_Envelope;
#X obj 704 329 f \$0;
#X obj 707 286 inlet;
#X obj 794 292 inlet;
#X obj 869 291 inlet;
#X obj 944 296 inlet;
#X obj 1010 291 inlet;
#X obj 515 103 inlet;
#X obj 546 471 outlet~;
#X obj 515 136 bng 15 250 50 0 empty empty empty 17 7 0 10 -262144
-1 -1;
#X obj 589 124 v x;
#X obj 515 171 expr x;
#X obj 209 324 tabosc4~ Wave;
#X obj 417 410 selector~ 5 1;
#X connect 0 0 1 0;
#X connect 0 0 26 0;
#X connect 1 0 5 0;
#X connect 1 0 6 0;
#X connect 1 0 8 0;
#X connect 1 0 9 0;
#X connect 1 0 29 0;
#X connect 1 1 3 0;
#X connect 2 0 25 0;
#X connect 3 0 12 0;
#X connect 4 0 11 0;
#X connect 5 0 30 1;
#X connect 6 0 30 2;
#X connect 7 0 30 3;
#X connect 8 0 7 0;
#X connect 9 0 10 0;
#X connect 10 0 30 4;
#X connect 11 0 30 0;
#X connect 12 0 17 0;
#X connect 13 0 17 2;
#X connect 14 0 17 3;
#X connect 15 0 17 4;
#X connect 16 0 17 5;
#X connect 17 0 2 1;
#X connect 18 0 17 1;
#X connect 19 0 18 0;
#X connect 20 0 13 0;
#X connect 21 0 14 0;
#X connect 22 0 15 0;
#X connect 23 0 16 0;
#X connect 24 0 26 0;
#X connect 24 0 27 0;
#X connect 26 0 28 0;
#X connect 28 0 4 0;
#X connect 29 0 30 5;
#X connect 30 0 2 0;
