#N canvas 292 96 896 619 10;
#X obj 220 473 dac~;
#X floatatom 158 230 0 0 0 0 - - -;
#X msg -47 428 \; pd dsp 1;
#X msg -47 460 \; pd dsp 0;
#X obj 157 84 notein;
#X obj 158 209 mtof;
#X obj 159 268 phasor~;
#X obj 208 393 *~;
#X obj 225 264 sig~;
#X floatatom 157 151 5 0 127 0 - - -;
#X floatatom 251 125 5 0 127 0 - - -;
#X obj 224 216 * 0.0078;
#X text 23 435 <- click to turn on;
#X text 23 464 <- click to turn off;
#X text 296 121 midi velocity;
#X text 258 470 audio output;
#X text -54 7 The Amateur Gentleman's Introduction to Music Synthesis
;
#X floatatom 277 372 5 0 0 0 - - -;
#X obj 276 393 sig~;
#X floatatom 321 400 5 0 0 0 - - -;
#X text 321 372 center frequency of the filter;
#X text 366 400 filter Q;
#X obj 220 428 vcf~ 10;
#X text 281 429 10 is the default Q;
#X text 33 150 midi note number;
#X obj 324 252 vline~;
#X text -54 22 Patch #4;
#X msg 364 189 1 400 \, 0.8 200 400;
#X obj 225 291 *~;
#X obj 250 154 select 0;
#X msg 292 216 0 1000;
#X obj 158 124 stripnote;
#X text -53 48 Similar to Patch #3 \, with ADSR volume envelope.;
#X obj 277 328 loadbang;
#X msg 277 350 1000;
#X text -76 125 don't change freq. when note off;
#X text 326 154 check if this is a note off or a note on...;
#X text 500 191 ...if note on \, draw attack and decay lines;
#X text 341 219 ...if note off \, draw release line;
#X text 264 291 multiply velocity by ADSR envelope lines to scale volume
;
#X text 376 243 the vline~ object draws lines based on message input.
the vline~ help patch has more info. to access the help patch \, right-click
on the object and choose "help.";
#X text 536 8 by Beau Sievers;
#X text 536 25 beau@beausievers.com;
#X text 536 42 http://beausievers.com/;
#X connect 1 0 6 0;
#X connect 4 0 31 0;
#X connect 4 1 10 0;
#X connect 4 1 31 1;
#X connect 5 0 1 0;
#X connect 6 0 7 0;
#X connect 7 0 22 0;
#X connect 8 0 28 0;
#X connect 9 0 5 0;
#X connect 10 0 29 0;
#X connect 11 0 8 0;
#X connect 17 0 18 0;
#X connect 18 0 22 1;
#X connect 19 0 22 2;
#X connect 22 0 0 0;
#X connect 22 0 0 1;
#X connect 25 0 28 1;
#X connect 27 0 25 0;
#X connect 28 0 7 1;
#X connect 29 0 30 0;
#X connect 29 1 27 0;
#X connect 29 1 11 0;
#X connect 30 0 25 0;
#X connect 31 0 9 0;
#X connect 33 0 34 0;
#X connect 34 0 17 0;